<svg xmlns="http://www.w3.org/2000/svg" viewBox="0 0 260 160">
  <title>Hagia Sophia Vigil</title>
  <!-- interior vellum ground -->
  <rect x="0" y="0" width="260" height="160" fill="#E2D3B3"/>
  <!-- last-night sky behind the dome -->
  <rect x="0" y="0" width="260" height="84" fill="#4B1F3F"/>
  <!-- crescent rising in the east -->
  <circle cx="232" cy="24" r="10" fill="#C9A227"/>
  <circle cx="228" cy="20" r="9" fill="#4B1F3F"/>
  <!-- the great dome -->
  <path d="M 12,84 A 131 131 0 0 1 248,84 Z" fill="#2B2118"/>
  <!-- finial cross -->
  <rect x="128" y="0" width="4" height="14" fill="#C9A227"/>
  <rect x="123" y="4" width="14" height="4" fill="#C9A227"/>
  <!-- entablature -->
  <rect x="0" y="84" width="260" height="10" fill="#2B2118"/>
  <!-- ring of lit windows -->
  <path d="M 29,84 v-9 a5,5 0 0 1 10,0 v9 z" fill="#C9A227"/>
  <path d="M 53,84 v-9 a5,5 0 0 1 10,0 v9 z" fill="#C9A227"/>
  <path d="M 77,84 v-9 a5,5 0 0 1 10,0 v9 z" fill="#C9A227"/>
  <path d="M 101,84 v-9 a5,5 0 0 1 10,0 v9 z" fill="#C9A227"/>
  <path d="M 125,84 v-9 a5,5 0 0 1 10,0 v9 z" fill="#C9A227"/>
  <path d="M 149,84 v-9 a5,5 0 0 1 10,0 v9 z" fill="#C9A227"/>
  <path d="M 173,84 v-9 a5,5 0 0 1 10,0 v9 z" fill="#C9A227"/>
  <path d="M 197,84 v-9 a5,5 0 0 1 10,0 v9 z" fill="#C9A227"/>
  <path d="M 221,84 v-9 a5,5 0 0 1 10,0 v9 z" fill="#C9A227"/>
  <!-- the gathered city: hooded monks and helmed soldiers, one wall of figures -->
  <path d="M 1,160 L 1,129 A 13 13 0 0 1 27,129 L 27,160 Z" fill="#2B2118"/>
  <path d="M 28,160 L 28,122 L 40,110 L 52,122 L 52,160 Z" fill="#4B1F3F"/>
  <path d="M 53,160 L 53,131 A 13 13 0 0 1 79,131 L 79,160 Z" fill="#1F4E79"/>
  <path d="M 80,160 L 80,121 L 93,108 L 106,121 L 106,160 Z" fill="#2B2118"/>
  <path d="M 106,160 L 106,126 A 12 12 0 0 1 130,126 L 130,160 Z" fill="#4B1F3F"/>
  <path d="M 131,160 L 131,122 L 143,110 L 155,122 L 155,160 Z" fill="#1F4E79"/>
  <path d="M 155,160 L 155,131 A 13 13 0 0 1 181,131 L 181,160 Z" fill="#2B2118"/>
  <path d="M 181,160 L 181,121 L 194,108 L 207,121 L 207,160 Z" fill="#4B1F3F"/>
  <path d="M 207,160 L 207,128 A 12 12 0 0 1 231,128 L 231,160 Z" fill="#1F4E79"/>
  <path d="M 232,160 L 232,126 L 246,112 L 260,126 L 260,160 Z" fill="#2B2118"/>
  <!-- candle flames raised over the crowd -->
  <path d="M 14,112 Q 10,106 14,99 Q 18,106 14,112 Z" fill="#C9A227"/>
  <path d="M 40,106 Q 36,100 40,93 Q 44,100 40,106 Z" fill="#C9A227"/>
  <path d="M 66,114 Q 62,108 66,101 Q 70,108 66,114 Z" fill="#C9A227"/>
  <path d="M 93,104 Q 89,98 93,91 Q 97,98 93,104 Z" fill="#C9A227"/>
  <path d="M 118,110 Q 114,104 118,97 Q 122,104 118,110 Z" fill="#C9A227"/>
  <path d="M 143,106 Q 139,100 143,93 Q 147,100 143,106 Z" fill="#C9A227"/>
  <path d="M 168,114 Q 164,108 168,101 Q 172,108 168,114 Z" fill="#C9A227"/>
  <path d="M 194,104 Q 190,98 194,91 Q 198,98 194,104 Z" fill="#C9A227"/>
  <path d="M 219,112 Q 215,106 219,99 Q 223,106 219,112 Z" fill="#C9A227"/>
  <path d="M 246,108 Q 242,102 246,95 Q 250,102 246,108 Z" fill="#C9A227"/>
</svg>
