<svg xmlns="http://www.w3.org/2000/svg" viewBox="0 0 260 160">
  <title>no relief from the west</title>
  <rect width="260" height="160" fill="#E2D3B3"/>
  <path d="M 0 112 Q 10 104 20 112 T 40 112 T 60 112 T 80 112 T 100 112 T 120 112 T 140 112 T 160 112 T 180 112 T 200 112 T 220 112 T 240 112 T 260 112 L 260 160 L 0 160 Z" fill="#1F4E79"/>
  <rect x="196" y="96" width="56" height="18" fill="#4B1F3F"/>
  <rect x="196" y="84" width="9" height="30" fill="#4B1F3F"/>
  <rect x="243" y="84" width="9" height="30" fill="#4B1F3F"/>
  <path d="M 212 96 Q 212 79 224 79 Q 236 79 236 96 Z" fill="#4B1F3F"/>
  <rect x="222" y="68" width="4" height="12" fill="#4B1F3F"/>
  <rect x="218" y="71" width="12" height="4" fill="#4B1F3F"/>
  <path d="M 206 96 Q 202 86 207 76 Q 207 84 211 86 Q 213 80 211 75 Q 217 85 212 96 Z" fill="#7A1F2B"/>
  <path d="M 240 96 Q 237 88 241 79 Q 241 86 244 88 Q 246 82 244 78 Q 249 87 246 96 Z" fill="#7A1F2B"/>
  <polygon points="30,76 42,96 150,96 162,78 172,82 158,116 48,116 22,82" fill="#2B2118"/>
  <rect x="92" y="12" width="6" height="86" fill="#2B2118"/>
  <rect x="58" y="36" width="74" height="5" fill="#2B2118"/>
  <path d="M 60 41 Q 95 58 130 41 L 130 49 Q 95 67 60 49 Z" fill="#2B2118"/>
  <polygon points="98,14 108,17 101,38" fill="#7A1F2B"/>
  <path d="M 28 86 L 26 122" stroke="#2B2118" stroke-width="3" fill="none"/>
  <circle cx="26" cy="122" r="4" fill="#2B2118"/>
  <rect x="24" y="122" width="4" height="22" fill="#2B2118"/>
  <rect x="17" y="128" width="18" height="4" fill="#2B2118"/>
  <path d="M 12 132 Q 14 146 26 147 Q 38 146 40 132 L 34 132 Q 33 140 26 140 Q 19 140 18 132 Z" fill="#2B2118"/>
</svg>
