<svg xmlns="http://www.w3.org/2000/svg" viewBox="0 0 260 160">
  <title>Union Riots</title>
  <rect x="0" y="0" width="260" height="160" fill="#F0E6D2"/>

  <!-- Hagia Sophia: body, shoulders, semi-domes, great dome -->
  <rect x="70" y="78" width="120" height="54" fill="#C9A227"/>
  <rect x="48" y="100" width="22" height="32" fill="#C9A227"/>
  <rect x="190" y="100" width="22" height="32" fill="#C9A227"/>
  <path d="M48 100 A11 11 0 0 1 70 100 Z" fill="#C9A227"/>
  <path d="M190 100 A11 11 0 0 1 212 100 Z" fill="#C9A227"/>
  <path d="M70 78 A18 18 0 0 1 106 78 Z" fill="#C9A227"/>
  <path d="M154 78 A18 18 0 0 1 190 78 Z" fill="#C9A227"/>
  <path d="M88 78 A42 42 0 0 1 172 78 Z" fill="#C9A227"/>

  <!-- cross above the dome -->
  <rect x="127" y="14" width="6" height="24" fill="#4B1F3F"/>
  <rect x="117" y="21" width="26" height="6" fill="#4B1F3F"/>

  <!-- door and windows -->
  <path d="M118 132 V112 A12 12 0 0 1 142 112 V132 Z" fill="#4B1F3F"/>
  <path d="M84 110 V94 A8 8 0 0 1 100 94 V110 Z" fill="#4B1F3F"/>
  <path d="M160 110 V94 A8 8 0 0 1 176 94 V110 Z" fill="#4B1F3F"/>

  <!-- the crack: a faith divided -->
  <polyline points="130,40 122,56 134,72 125,88 129,98" fill="none" stroke="#2B2118" stroke-width="4"/>

  <!-- the mob: band of heads, raised fists, staff -->
  <rect x="0" y="134" width="260" height="26" fill="#2B2118"/>
  <circle cx="14" cy="133" r="9" fill="#2B2118"/>
  <circle cx="40" cy="133" r="9" fill="#2B2118"/>
  <circle cx="66" cy="133" r="9" fill="#2B2118"/>
  <circle cx="92" cy="133" r="9" fill="#2B2118"/>
  <circle cx="118" cy="133" r="9" fill="#2B2118"/>
  <circle cx="144" cy="133" r="9" fill="#2B2118"/>
  <circle cx="170" cy="133" r="9" fill="#2B2118"/>
  <circle cx="196" cy="133" r="9" fill="#2B2118"/>
  <circle cx="222" cy="133" r="9" fill="#2B2118"/>
  <circle cx="248" cy="133" r="9" fill="#2B2118"/>

  <rect x="25" y="104" width="6" height="32" fill="#2B2118"/>
  <circle cx="28" cy="101" r="5.5" fill="#2B2118"/>
  <rect x="104" y="100" width="6" height="36" fill="#2B2118"/>
  <circle cx="107" cy="97" r="5.5" fill="#2B2118"/>
  <rect x="147" y="104" width="6" height="32" fill="#2B2118"/>
  <circle cx="150" cy="101" r="5.5" fill="#2B2118"/>
  <rect x="233" y="106" width="6" height="30" fill="#2B2118"/>
  <circle cx="236" cy="103" r="5.5" fill="#2B2118"/>
  <polygon points="40,135 44,136 58,98 54,97" fill="#2B2118"/>
  <polygon points="180,136 184,135 178,102 174,103" fill="#2B2118"/>

  <!-- torches -->
  <polygon points="9,136 13,137 21,105 17,104" fill="#2B2118"/>
  <polygon points="19,114 11,104 13,94 17,99 21,84 25,96 27,105" fill="#7A1F2B"/>
  <polygon points="249,137 253,136 245,105 241,104" fill="#2B2118"/>
  <polygon points="243,114 235,105 237,96 241,99 243,84 249,94 251,104" fill="#7A1F2B"/>
</svg>
