<svg xmlns="http://www.w3.org/2000/svg" viewBox="0 0 260 160">
<title>Long Campaign</title>
<rect width="260" height="160" fill="#F0E6D2"/>
<circle cx="40" cy="46" r="20" fill="#C9A227"/>
<polygon points="96,32 104,26 112,32 112,37 104,31 96,37" fill="#2B2118"/>
<polygon points="124,22 130,17 136,22 136,26 130,21 124,26" fill="#2B2118"/>
<polygon points="222,38 229,32 236,38 236,43 229,37 222,43" fill="#2B2118"/>
<polygon points="94,98 103,100 97,132 88,131" fill="#2B2118"/>
<polygon points="108,102 116,103 122,130 114,131" fill="#2B2118"/>
<polygon points="146,104 155,105 150,133 141,132" fill="#2B2118"/>
<polygon points="160,100 168,100 173,130 165,131" fill="#2B2118"/>
<path d="M170,82 Q184,90 180,110 Q178,120 170,126 Q175,112 172,100 Q170,90 164,84 Z" fill="#2B2118"/>
<path d="M68,98 L86,84 Q94,77 106,74 C122,70 132,76 148,73 Q164,71 170,80 Q177,88 172,98 Q169,107 158,108 L108,105 Q96,103 92,95 Q87,99 81,104 L70,107 Z" fill="#2B2118"/>
<polygon points="86,84 93,76 94,86" fill="#2B2118"/>
<path d="M124,76 Q124,60 134,54 Q142,50 146,56 L148,76 Z" fill="#2B2118"/>
<circle cx="131" cy="46" r="8" fill="#2B2118"/>
<polygon points="142,58 148,55 158,66 152,71" fill="#2B2118"/>
<polygon points="152,72 157,73 165,14 160,13" fill="#2B2118"/>
<path d="M163,15 L212,22 L203,29 L212,37 L200,44 L160,40 Z" fill="#7A1F2B"/>
<path d="M0,126 Q28,119 58,124 Q92,130 128,123 Q166,116 198,123 Q230,129 260,121 L260,160 L0,160 Z" fill="#4A5D3A"/>
<path d="M203,126 Q215,107 227,126 Z" fill="#7A1F2B"/>
<circle cx="215" cy="119" r="3" fill="#C9A227"/>
<path d="M14,136 Q42,130 70,136 Q42,142 14,136 Z" fill="#2B2118"/>
<path d="M92,144 Q126,138 158,144 Q126,150 92,144 Z" fill="#2B2118"/>
<path d="M180,134 Q210,129 238,134 Q210,140 180,134 Z" fill="#2B2118"/>
</svg>
