<svg xmlns="http://www.w3.org/2000/svg" id="board" viewBox="0 0 1600 1000" font-family="'EB Garamond', serif">
  <title>IMPERIUM: Twilight of Empires - game board</title>

  <style>
    svg#board {
      --faction-byzantium: #7A2E2E;
      --faction-ottoman: #1F6B4C;
      --faction-venice: #B4472A;
      --faction-genoa: #C9CBD0;
      --faction-hungary: #2F5B8C;
    }
    .province {
      fill: #F0E6D2;
      stroke: #2B2118;
      stroke-width: 1.5;
      stroke-linejoin: round;
      transition: fill .25s, fill-opacity .25s, stroke-width .15s;
    }
    .province.owner-byzantium { fill: var(--faction-byzantium); fill-opacity: .55; }
    .province.owner-ottoman   { fill: var(--faction-ottoman);   fill-opacity: .55; }
    .province.owner-venice    { fill: var(--faction-venice);    fill-opacity: .55; }
    .province.owner-genoa     { fill: var(--faction-genoa);     fill-opacity: .55; }
    .province.owner-hungary   { fill: var(--faction-hungary);   fill-opacity: .55; }
    .province.owner-minor     { fill: #E2D3B3; fill-opacity: .85; }
    .province:hover { stroke-width: 3; cursor: pointer; }
    .sea-zone {
      fill: #2C5F7C;
      fill-opacity: .16;
      stroke: #1F4E79;
      stroke-width: .8;
      stroke-opacity: .45;
    }
    .sea-zone:hover { fill-opacity: .26; }
    .city text {
      font-family: 'EB Garamond', serif;
      font-size: 13px;
      font-variant: small-caps;
      letter-spacing: .06em;
      fill: #2B2118;
      paint-order: stroke;
      stroke: #F0E6D2;
      stroke-width: 2.5;
      stroke-linejoin: round;
      pointer-events: none;
    }
    .prov-label {
      font-family: 'EB Garamond', serif;
      font-variant: small-caps;
      letter-spacing: .08em;
      fill: #2B2118;
      fill-opacity: .78;
      paint-order: stroke;
      stroke: #F0E6D2;
      stroke-width: 2;
      stroke-opacity: .6;
      stroke-linejoin: round;
    }
    .sea-label {
      font-family: 'EB Garamond', serif;
      font-style: italic;
      letter-spacing: .35em;
      fill: #1F4E79;
      fill-opacity: .55;
      pointer-events: none;
    }
    .region-flavor {
      font-family: 'EB Garamond', serif;
      font-style: italic;
      letter-spacing: .35em;
      font-size: 12px;
      fill: #2B2118;
      fill-opacity: .18;
    }
  </style>
  <defs>
    <radialGradient id="board-sea-vignette" cx="50%" cy="50%" r="75%">
      <stop offset="0%" stop-color="#F0E6D2" stop-opacity="0"/>
      <stop offset="100%" stop-color="#E2D3B3" stop-opacity=".5"/>
    </radialGradient>
    <pattern id="board-key-h" width="22" height="22" patternUnits="userSpaceOnUse">
      <path d="M2,20 L2,4 L16,4 L16,14 L8,14 L8,9 L11,9 L11,11" fill="none" stroke="#2B2118" stroke-width="2.4"/>
    </pattern>
    <pattern id="board-key-v" width="22" height="22" patternUnits="userSpaceOnUse"
             patternTransform="rotate(90)">
      <path d="M2,20 L2,4 L16,4 L16,14 L8,14 L8,9 L11,9 L11,11" fill="none" stroke="#2B2118" stroke-width="2.4"/>
    </pattern>
    <clipPath id="board-field-clip"><rect x="60" y="60" width="1480" height="880"/></clipPath>
  </defs>

  <!-- parchment ground -->
  <rect id="board-page" width="1600" height="1000" fill="#F0E6D2"/>
  <rect id="board-sea-ground" x="60" y="60" width="1480" height="880" fill="url(#board-sea-vignette)"/>

  <!-- rhumb-line flourish, clipped to the field -->
  <g id="board-rhumbs" clip-path="url(#board-field-clip)" stroke="#1F4E79"
     stroke-width=".6" stroke-opacity=".14">
    <line x1="-1010" y1="770" x2="2390" y2="770"/>
    <line x1="-977" y1="438" x2="2357" y2="1102"/>
    <line x1="-881" y1="119" x2="2261" y2="1421"/>
    <line x1="-723" y1="-174" x2="2103" y2="1714"/>
    <line x1="-512" y1="-432" x2="1892" y2="1972"/>
    <line x1="-254" y1="-643" x2="1634" y2="2183"/>
    <line x1="39" y1="-801" x2="1341" y2="2341"/>
    <line x1="358" y1="-897" x2="1022" y2="2437"/>
    <line x1="690" y1="-930" x2="690" y2="2470"/>
    <line x1="1022" y1="-897" x2="358" y2="2437"/>
    <line x1="1341" y1="-801" x2="39" y2="2341"/>
    <line x1="1634" y1="-643" x2="-254" y2="2183"/>
    <line x1="1892" y1="-432" x2="-512" y2="1972"/>
    <line x1="2103" y1="-174" x2="-723" y2="1714"/>
    <line x1="2261" y1="119" x2="-881" y2="1421"/>
    <line x1="2357" y1="438" x2="-977" y2="1102"/>
  </g>

  <!-- sea zones (12 canonical MAP.md zones tiling all water) -->
  <g id="board-seas">
    <path id="bosphorus" class="sea-zone" fill-rule="evenodd" d="M1015.3,350.7 L1025.8,359.0 L1036.8,366.4 L1032.1,374.9 L1029.5,379.6 L1072.5,369.3 L1067.0,367.6 L1054.6,363.2 L1061.5,359.1 L1068.3,354.8 L1074.7,349.7 L1076.6,348.1 L1076.0,340.0 L1042.0,344.0 L1027.5,337.0 L1011.1,340.0 Z M1027.5,338.8 L1038.7,347.5 L1035.2,356.0 L1019.3,349.7 L1015.5,343.7 Z"><title>Bosphorus</title></path>
    <path id="sea-of-marmara" class="sea-zone" fill-rule="evenodd" d="M1013.2,388.4 L998.1,390.2 L987.0,398.8 L975.1,406.2 L965.8,410.3 L956.7,414.5 L1006.8,427.2 L1008.1,424.7 L999.7,414.9 L1010.8,409.7 L1022.1,404.4 L1034.7,404.2 L1046.6,400.1 L1053.5,404.0 L1060.5,407.8 L1068.6,403.9 L1076.7,399.7 L1083.1,392.7 L1089.5,385.7 L1084.4,378.6 L1079.3,371.5 L1072.5,369.3 L1029.5,379.6 L1027.5,383.4 Z"><title>Sea of Marmara</title></path>
    <path id="aegean" class="sea-zone" fill-rule="evenodd" d="M936.5,418.1 L928.0,421.4 L919.6,424.6 L910.5,424.0 L901.4,423.2 L898.7,427.9 L896.0,432.7 L895.2,443.9 L885.1,440.3 L875.0,436.6 L865.4,445.6 L852.8,450.1 L851.5,455.0 L849.3,463.1 L842.7,475.2 L849.4,488.7 L857.0,500.8 L857.5,501.6 L851.5,513.4 L850.6,526.9 L857.5,540.9 L867.6,553.4 L875.8,563.9 L882.3,575.4 L869.8,578.1 L858.7,583.5 L850.2,591.3 L840.2,597.7 L834.1,602.1 L828.6,606.0 L836.5,608.8 L844.3,611.8 L849.9,618.1 L855.3,624.4 L859.1,632.1 L862.7,639.9 L862.7,640.0 L880.0,640.0 L916.8,640.8 L918.0,636.0 L922.6,633.1 L928.2,632.7 L933.0,630.0 L938.0,634.8 L941.0,641.0 L1010.0,640.0 L1046.0,662.0 L1051.0,674.0 L1061.0,671.0 L1071.0,668.5 L1076.0,673.5 L1081.0,678.5 L1085.0,684.5 L1090.0,690.5 L1097.5,686.0 L1105.0,681.0 L1110.0,679.5 L1114.5,681.0 L1118.0,684.5 L1121.9,682.7 L1116.1,679.7 L1109.7,676.5 L1106.1,678.3 L1097.7,682.7 L1089.3,687.0 L1085.1,680.9 L1081.1,674.8 L1075.9,669.8 L1070.6,664.7 L1060.8,667.7 L1050.9,670.2 L1045.5,658.1 L1044.1,644.6 L1038.2,632.3 L1038.1,631.2 L1036.0,618.6 L1039.5,609.2 L1042.5,599.6 L1032.7,590.4 L1022.4,581.2 L1027.7,572.2 L1028.8,561.0 L1016.7,551.2 L1002.9,545.4 L1004.1,543.0 L1008.5,535.1 L1013.1,527.1 L1007.7,514.3 L1003.3,501.3 L1004.3,493.2 L1005.4,485.1 L1009.5,478.3 L1013.5,471.5 L1009.6,464.2 L1005.7,456.9 L1002.8,449.3 L999.7,441.7 L1003.3,434.5 L1006.8,427.2 L956.7,414.5 L946.6,416.3 Z M942.8,460.5 L937.0,458.0 L937.1,453.1 L936.0,448.0 L940.5,445.2 L945.8,445.3 L950.0,443.0 L954.9,446.7 L958.0,452.0 L952.7,456.0 L949.0,461.0 Z M976.1,477.6 L972.0,477.0 L971.3,471.5 L972.0,466.0 L977.3,463.2 L983.4,463.5 L989.0,461.0 L993.4,465.9 L996.0,472.0 L990.5,475.9 L986.0,481.0 L980.1,480.4 Z M988.2,526.7 L983.5,524.0 L985.0,519.6 L985.5,515.0 L990.6,511.9 L997.5,510.0 L999.5,515.3 L1002.5,520.0 L997.7,523.6 L993.5,528.0 Z M882.9,542.3 L873.5,530.6 L868.2,518.5 L859.3,509.0 L865.4,503.3 L871.6,497.6 L881.4,504.1 L889.1,513.3 L894.4,519.7 L899.8,526.0 L903.8,533.3 L908.0,540.6 L919.1,550.9 L928.6,562.8 L921.4,569.5 L914.2,575.9 L904.5,564.0 L892.4,554.2 Z"><title>Aegean Sea</title></path>
    <path id="sea-of-crete" class="sea-zone" fill-rule="evenodd" d="M867.3,656.5 L858.7,664.0 L853.9,674.1 L851.5,684.9 L846.7,694.7 L836.9,698.0 L827.2,701.7 L819.9,709.5 L812.8,717.6 L804.5,715.4 L796.1,713.3 L788.1,710.5 L785.0,709.4 L785.0,715.0 L700.0,698.0 L620.0,690.0 L547.0,739.0 L640.0,800.0 L750.0,838.0 L900.0,830.0 L1050.0,810.0 L1118.0,760.0 L1105.0,721.0 L1105.7,719.6 L1097.3,718.0 L1087.0,714.7 L1088.4,705.6 L1090.1,696.4 L1103.2,690.3 L1113.1,685.7 L1116.3,684.3 L1118.9,688.7 L1119.3,689.3 L1121.9,682.7 L1118.0,684.5 L1114.5,681.0 L1110.0,679.5 L1105.0,681.0 L1097.5,686.0 L1090.0,690.5 L1085.0,684.5 L1081.0,678.5 L1076.0,673.5 L1071.0,668.5 L1061.0,671.0 L1051.0,674.0 L1046.0,662.0 L1010.0,640.0 L941.0,641.0 L941.0,641.0 L936.6,644.6 L934.7,649.3 L931.0,652.0 L924.3,648.7 L917.0,647.0 L916.7,641.4 L916.8,640.8 L880.0,640.0 L862.7,640.0 L865.0,648.2 Z M879.3,768.1 L871.4,764.5 L863.0,764.2 L854.6,764.1 L857.8,750.9 L869.4,748.8 L879.7,743.2 L891.6,743.3 L903.6,743.6 L914.8,745.1 L925.6,748.6 L936.9,747.6 L948.2,746.3 L960.9,748.5 L973.7,747.8 L986.7,748.2 L999.3,752.2 L1009.3,759.6 L1020.6,764.7 L1010.6,765.4 L1000.7,766.1 L992.0,770.8 L983.3,775.7 L970.4,779.1 L957.3,777.8 L944.3,776.5 L932.5,771.3 L920.9,770.8 L909.8,767.9 L898.4,769.3 L887.2,771.6 Z"><title>Sea of Crete</title></path>
    <path id="eastern-mediterranean" class="sea-zone" fill-rule="evenodd" d="M575.4,856.5 L583.6,854.8 L596.0,851.0 L600.5,849.4 L610.0,850.0 L619.5,850.2 L628.4,847.2 L637.3,844.1 L646.1,840.8 L654.9,837.6 L666.5,838.2 L676.9,834.6 L688.0,833.9 L698.9,833.3 L706.5,835.8 L714.0,838.3 L721.6,839.7 L729.2,841.1 L736.8,840.8 L744.4,840.3 L751.9,842.7 L759.3,844.8 L766.9,845.0 L774.5,845.1 L782.0,845.4 L789.5,845.7 L797.1,845.7 L804.7,845.7 L812.1,847.6 L819.5,849.7 L829.4,855.7 L839.4,861.8 L849.5,868.1 L860.1,873.4 L873.6,875.6 L887.2,877.1 L899.3,876.6 L900.7,876.5 L914.4,880.5 L924.9,873.9 L934.5,866.0 L946.6,861.8 L957.9,856.2 L964.8,846.4 L974.3,839.0 L985.7,834.4 L998.0,832.1 L1013.2,834.6 L1027.1,830.6 L1041.8,830.2 L1056.5,830.0 L1069.0,835.8 L1082.5,837.8 L1095.9,839.7 L1109.4,838.8 L1123.3,840.8 L1137.1,843.5 L1149.4,851.4 L1161.6,860.1 L1174.5,862.7 L1187.4,864.8 L1200.3,865.1 L1205.3,866.3 L1213.3,868.1 L1224.1,864.8 L1234.3,860.0 L1246.2,860.1 L1258.1,860.9 L1271.3,858.9 L1282.3,852.7 L1295.7,853.0 L1309.1,853.5 L1315.8,849.6 L1322.5,845.8 L1328.9,841.3 L1335.4,836.8 L1343.5,836.5 L1351.6,836.0 L1358.5,832.2 L1365.5,828.2 L1374.1,829.1 L1382.8,829.8 L1390.7,833.0 L1398.7,836.0 L1407.0,839.7 L1415.3,843.4 L1423.2,848.0 L1431.2,852.7 L1440.1,843.0 L1444.8,830.4 L1453.5,820.5 L1457.2,806.4 L1465.6,794.2 L1469.0,780.0 L1473.3,767.6 L1472.4,754.2 L1477.7,742.0 L1478.5,729.0 L1477.5,716.5 L1481.4,704.3 L1479.4,691.8 L1481.3,679.5 L1477.0,673.6 L1472.8,667.8 L1471.5,660.7 L1470.2,653.7 L1459.6,661.9 L1448.4,669.4 L1435.6,664.4 L1421.0,664.7 L1412.2,660.6 L1403.3,656.5 L1392.8,655.6 L1382.3,654.3 L1372.2,654.3 L1362.0,654.0 L1351.9,652.9 L1341.7,651.5 L1331.2,652.1 L1320.8,652.5 L1310.8,653.4 L1300.8,654.5 L1299.9,654.6 L1292.0,651.6 L1284.1,648.8 L1276.6,645.5 L1269.1,642.4 L1261.5,646.0 L1253.8,649.8 L1246.5,654.2 L1239.1,658.7 L1234.4,650.2 L1229.6,641.6 L1222.6,648.9 L1215.6,656.1 L1209.2,661.5 L1202.9,666.9 L1200.5,668.9 L1192.6,666.2 L1184.7,663.3 L1176.1,663.9 L1167.6,664.4 L1164.7,673.1 L1162.2,681.9 L1148.8,688.4 L1134.4,691.9 L1128.4,687.4 L1122.5,683.0 L1121.9,682.7 L1119.3,689.3 L1118.9,688.7 L1121.8,693.4 L1128.4,702.0 L1119.4,712.3 L1108.0,720.0 L1097.3,718.0 L1105.7,719.6 L1105.0,721.0 L1118.0,760.0 L1050.0,810.0 L900.0,830.0 L750.0,838.0 L640.0,800.0 L547.0,739.0 L560.0,800.0 L569.9,857.6 Z M1297.4,728.0 L1287.2,726.0 L1277.0,724.3 L1267.1,726.3 L1257.2,728.6 L1251.9,720.1 L1246.6,711.7 L1256.9,709.8 L1267.2,708.1 L1276.8,704.4 L1286.5,701.0 L1296.5,699.8 L1306.5,698.8 L1316.8,700.1 L1327.1,701.4 L1335.7,697.7 L1344.5,693.8 L1354.3,693.5 L1364.1,692.9 L1357.0,699.5 L1349.9,705.9 L1344.2,713.3 L1338.7,720.6 L1328.0,721.6 L1317.4,722.4 L1307.4,725.1 Z"><title>Eastern Mediterranean</title></path>
    <path id="ionian" class="sea-zone" fill-rule="evenodd" d="M776.2,698.7 L772.7,689.7 L767.2,682.1 L761.9,674.5 L765.9,666.1 L770.1,657.7 L773.0,649.0 L775.9,640.4 L783.1,634.8 L790.1,629.2 L797.5,624.1 L804.9,619.1 L811.0,611.5 L799.2,605.2 L785.3,603.3 L772.2,604.7 L759.5,601.0 L753.3,594.3 L750.8,591.6 L743.5,580.6 L742.9,572.8 L742.2,565.0 L738.5,557.7 L734.9,550.3 L731.7,542.0 L728.8,533.6 L723.7,526.3 L718.7,519.0 L721.4,511.6 L724.1,504.2 L724.9,496.3 L725.7,488.4 L723.7,480.0 L721.6,471.7 L718.0,466.0 L712.1,456.9 L717.2,445.3 L717.1,432.2 L712.1,424.5 L707.1,416.9 L702.8,409.0 L698.6,401.2 L699.0,390.0 L699.2,386.0 L697.1,378.7 L695.0,371.5 L694.0,430.0 L685.2,456.5 L688.0,455.0 L697.2,466.9 L695.1,475.4 L692.8,484.0 L680.6,486.3 L676.4,480.1 L642.0,525.0 L640.1,526.2 L640.1,526.2 L633.3,530.8 L626.6,535.5 L615.1,541.5 L612.3,542.9 L598.3,545.5 L584.2,546.8 L583.8,554.9 L583.5,562.9 L580.1,569.5 L576.7,576.0 L583.1,584.3 L589.3,592.4 L592.1,601.7 L594.5,610.8 L591.9,619.0 L589.0,627.2 L588.5,635.9 L587.8,644.5 L581.0,649.1 L574.1,653.6 L568.3,659.2 L562.5,664.8 L549.6,659.4 L539.9,650.0 L537.3,642.5 L534.7,635.1 L533.1,627.3 L531.3,619.5 L529.8,616.8 L533.0,627.0 L515.0,660.0 L505.0,685.0 L499.0,686.3 L504.7,688.8 L512.9,692.5 L520.1,698.0 L527.5,703.8 L530.2,711.6 L533.1,719.4 L538.3,726.1 L543.5,732.9 L536.1,734.6 L547.0,739.0 L620.0,690.0 L700.0,698.0 L785.0,715.0 L785.0,709.4 L780.1,707.7 Z"><title>Ionian Sea</title></path>
    <path id="adriatic" class="sea-zone" fill-rule="evenodd" d="M687.8,357.1 L682.0,351.5 L676.2,346.1 L671.2,340.6 L666.1,335.1 L663.7,329.6 L659.8,321.4 L653.1,316.0 L646.1,310.6 L640.4,303.9 L634.4,297.1 L626.4,289.1 L618.4,281.0 L609.2,273.9 L600.1,266.5 L588.1,255.2 L573.9,247.3 L564.4,240.6 L562.1,239.0 L549.0,234.6 L540.8,242.0 L538.0,248.0 L536.2,252.1 L533.5,249.5 L527.2,243.4 L521.0,237.5 L513.3,236.9 L504.9,236.6 L496.9,236.1 L489.0,235.7 L480.4,245.3 L470.2,252.7 L468.8,264.8 L468.0,271.8 L464.3,280.5 L460.5,289.0 L461.3,298.2 L461.7,306.7 L462.7,310.8 L464.2,315.9 L466.3,324.4 L471.5,331.8 L476.3,339.0 L477.0,340.1 L478.7,349.7 L480.2,359.2 L482.6,368.8 L485.6,378.1 L494.3,383.0 L500.2,391.3 L509.0,394.6 L517.9,398.2 L523.4,403.5 L532.1,412.1 L543.1,410.5 L554.2,409.8 L548.4,419.1 L542.8,428.6 L554.5,439.0 L563.8,451.6 L571.7,457.5 L579.4,463.4 L584.8,471.5 L590.1,479.5 L598.2,486.5 L606.2,493.4 L614.5,499.8 L622.9,506.0 L633.2,514.5 L640.1,526.2 L642.0,525.0 L676.4,480.1 L671.9,473.6 L676.0,461.5 L685.2,456.5 L694.0,430.0 L695.0,371.5 L691.4,364.3 Z"><title>Adriatic Sea</title></path>
    <path id="tyrrhenian" class="sea-zone" fill-rule="evenodd" d="M518.9,595.2 L514.9,586.7 L508.2,578.7 L501.4,570.8 L494.6,562.9 L487.8,555.0 L483.4,548.4 L479.1,541.7 L468.9,533.8 L466.9,532.1 L464.0,521.8 L461.5,511.4 L457.1,502.1 L452.7,492.7 L453.5,483.4 L454.3,474.1 L451.4,465.7 L448.4,457.3 L442.6,450.9 L436.7,444.4 L429.9,438.7 L423.0,433.0 L420.3,423.6 L417.8,414.3 L412.8,406.2 L407.9,398.0 L402.6,385.5 L401.1,381.8 L396.1,374.8 L391.1,367.8 L386.0,360.0 L380.8,352.3 L372.9,347.5 L364.8,342.8 L354.8,333.2 L344.3,323.7 L344.1,323.6 L334.5,318.9 L324.3,314.5 L315.2,317.1 L306.1,319.4 L295.6,314.7 L285.6,308.3 L277.1,302.4 L268.6,296.5 L259.9,290.5 L251.1,284.5 L243.7,279.1 L236.2,273.7 L230.6,266.6 L225.0,259.4 L217.5,254.8 L210.1,250.4 L202.0,248.2 L193.9,246.2 L179.8,246.2 L166.5,242.1 L154.5,236.0 L142.6,229.9 L129.7,228.8 L117.9,223.3 L105.8,218.8 L95.4,211.0 L86.6,207.1 L78.0,203.3 L69.2,199.6 L60.0,196.0 L60.0,812.0 L70.4,816.1 L80.1,820.8 L90.2,821.1 L101.4,820.8 L112.8,820.6 L124.3,820.1 L135.1,824.1 L146.1,827.7 L156.7,823.4 L167.4,818.9 L178.7,818.2 L190.0,817.7 L201.1,815.5 L212.3,813.8 L223.6,815.3 L235.0,817.3 L245.8,818.5 L256.7,819.8 L267.2,818.7 L277.7,817.4 L288.3,816.2 L298.8,814.7 L309.6,815.1 L320.3,815.1 L329.6,811.6 L338.9,808.0 L348.2,804.3 L357.4,800.7 L367.1,799.6 L376.8,798.7 L386.4,798.7 L396.1,798.8 L405.1,793.2 L414.2,787.5 L421.5,779.4 L428.7,771.1 L428.8,771.2 L430.0,768.0 L435.5,741.4 L432.6,736.7 L427.3,728.1 L432.0,722.2 L436.8,716.3 L439.0,709.0 L441.4,701.6 L453.9,693.4 L468.1,688.5 L482.3,687.6 L496.7,685.3 L499.0,686.3 L505.0,685.0 L515.0,660.0 L533.0,627.0 L529.8,616.8 L527.1,611.6 L522.6,603.6 Z M273.9,438.4 L273.4,426.8 L272.3,415.3 L275.9,404.8 L288.2,404.2 L299.4,399.4 L301.0,407.5 L302.7,415.7 L306.3,423.4 L310.0,431.1 L309.5,441.2 L308.9,451.3 L307.0,461.4 L305.0,471.4 L293.9,478.3 L284.2,486.9 L281.5,477.2 L278.6,467.5 L274.5,458.2 L270.2,448.8 Z M270.7,551.2 L273.2,541.6 L276.0,532.0 L277.5,521.6 L279.2,511.3 L286.8,510.0 L294.4,508.6 L302.1,508.1 L309.8,507.4 L312.7,516.7 L315.8,526.0 L320.5,534.5 L325.5,543.0 L326.5,554.6 L326.1,566.0 L324.9,577.2 L324.9,588.5 L328.0,595.9 L330.9,603.4 L334.3,610.5 L337.3,617.6 L328.7,619.9 L320.0,622.1 L312.6,627.4 L305.2,632.5 L300.9,623.9 L296.2,615.2 L288.5,608.5 L280.5,601.5 L278.2,589.1 L274.6,576.5 L273.9,564.0 Z"><title>Tyrrhenian Sea</title></path>
    <path id="sicilian-channel" class="sea-zone" fill-rule="evenodd" d="M433.6,777.6 L438.6,784.1 L441.8,791.7 L445.0,799.2 L458.0,803.8 L468.2,813.1 L473.2,819.4 L478.4,825.8 L484.7,831.1 L491.2,836.5 L498.4,833.5 L505.6,830.7 L512.9,828.4 L520.3,826.3 L526.3,835.5 L532.4,844.8 L541.3,852.0 L550.2,859.4 L558.7,858.7 L567.2,858.1 L569.9,857.6 L560.0,800.0 L547.0,739.0 L536.1,734.6 L532.3,735.5 L523.3,742.8 L513.5,749.0 L503.6,755.5 L490.9,754.5 L478.9,751.3 L466.2,755.3 L453.4,756.5 L445.6,751.0 L437.8,745.3 L435.5,741.4 L430.0,768.0 L428.8,771.2 Z"><title>Sicilian Channel</title></path>
    <path id="black-sea-west" class="sea-zone" fill-rule="evenodd" d="M1145.4,143.9 L1141.8,134.4 L1135.7,126.4 L1129.7,118.5 L1133.5,110.0 L1137.5,101.5 L1142.0,93.3 L1146.9,85.6 L1150.5,78.8 L1153.6,72.0 L1158.8,66.1 L1164.0,60.0 L1075.0,60.0 L1071.6,67.1 L1068.3,74.7 L1066.8,83.4 L1065.0,92.1 L1064.8,100.2 L1065.0,107.7 L1062.4,114.9 L1060.1,122.0 L1057.9,129.6 L1055.9,137.2 L1052.4,144.2 L1048.9,151.2 L1047.8,159.0 L1046.5,166.9 L1043.3,174.1 L1040.0,181.4 L1043.9,194.4 L1045.7,197.6 L1050.5,206.1 L1049.4,219.7 L1053.1,232.9 L1048.5,239.7 L1044.1,246.5 L1042.4,254.5 L1041.0,262.4 L1038.5,269.8 L1036.1,277.2 L1036.2,285.3 L1036.3,293.4 L1030.4,304.0 L1020.0,310.5 L1014.5,321.6 L1006.0,329.1 L1005.0,329.9 L1011.1,340.0 L1027.5,337.0 L1042.0,344.0 L1076.0,340.0 L1076.6,348.1 L1074.7,349.7 L1081.0,344.5 L1090.2,339.6 L1099.2,334.4 L1108.6,330.3 L1117.9,326.3 L1127.0,321.9 L1135.9,317.7 L1128.0,240.0 L1150.0,158.0 L1150.6,155.2 L1149.0,153.5 Z"><title>Black Sea (West)</title></path>
    <path id="black-sea-east" class="sea-zone" fill-rule="evenodd" d="M1312.5,156.2 L1305.8,160.6 L1298.2,161.6 L1290.6,162.7 L1283.1,164.4 L1275.7,166.4 L1270.8,173.0 L1265.8,179.8 L1258.6,184.2 L1251.4,188.8 L1242.5,191.6 L1233.7,194.4 L1224.6,195.3 L1215.6,196.1 L1207.0,191.6 L1198.5,187.0 L1189.6,182.9 L1180.7,178.8 L1171.9,173.6 L1163.1,168.5 L1156.1,160.9 L1150.6,155.2 L1150.0,158.0 L1128.0,240.0 L1135.9,317.7 L1137.2,317.1 L1147.3,316.4 L1157.5,315.9 L1168.0,312.8 L1179.1,313.1 L1190.0,312.5 L1200.4,309.8 L1209.7,306.1 L1218.9,302.2 L1229.1,301.1 L1239.3,299.8 L1248.0,292.8 L1253.6,283.1 L1264.4,293.9 L1269.2,298.9 L1278.0,297.1 L1286.8,295.6 L1295.9,295.5 L1305.0,295.6 L1317.0,293.1 L1330.0,294.8 L1342.4,293.4 L1355.5,296.0 L1368.4,295.3 L1380.3,290.8 L1392.8,291.4 L1393.3,291.4 L1406.3,291.8 L1414.0,291.7 L1421.7,291.7 L1429.1,289.7 L1436.5,287.8 L1444.3,288.2 L1452.0,288.7 L1459.1,286.5 L1466.2,284.3 L1475.9,284.2 L1485.6,284.1 L1494.9,282.7 L1504.2,281.1 L1513.2,280.1 L1521.8,278.9 L1530.6,280.4 L1540.0,282.0 L1540.0,105.1 L1450.0,135.0 L1387.6,166.9 L1317.9,152.7 Z"><title>Black Sea (East)</title></path>
    <path id="sea-of-azov" class="sea-zone" fill-rule="evenodd" d="M1284.7,70.8 L1286.3,81.0 L1287.5,91.2 L1285.9,101.9 L1295.5,111.1 L1302.0,122.9 L1309.2,127.7 L1316.4,132.7 L1323.8,137.3 L1331.3,142.0 L1325.2,146.9 L1319.1,151.9 L1317.9,152.7 L1387.6,166.9 L1450.0,135.0 L1540.0,105.1 L1540.0,60.0 L1284.0,60.0 Z"><title>Sea of Azov</title></path>
  </g>

  <!-- sea names (antique latin labels) -->
  <g id="board-sea-names">
    <text id="board-black-sea-west-label" class="sea-label" x="1120" y="240" font-size="12" text-anchor="middle" transform="rotate(-3 1120 240)">PONTVS OCCIDENTALIS</text>
    <text id="board-black-sea-east-label" class="sea-label" x="1300" y="250" font-size="19" text-anchor="middle" transform="rotate(-3 1300 250)">M A R E   M A I V S</text>
    <text id="board-aegean-label" class="sea-label" x="908" y="585" font-size="13" text-anchor="middle" transform="rotate(-62 908 585)">AEGAEVM</text>
    <text id="board-tyrrhenian-label" class="sea-label" x="398" y="594" font-size="14" text-anchor="middle" transform="rotate(-20 398 594)">TYRRHENVM</text>
    <text id="board-adriatic-label" class="sea-label" x="560" y="352" font-size="12.5" text-anchor="middle" transform="rotate(47 560 352)">HADRIATICVM</text>
    <text id="board-ionian-label" class="sea-label" x="682" y="596" font-size="13" text-anchor="middle" transform="rotate(18 682 596)">IONIVM</text>
    <text id="board-sicilian-label" class="sea-label" x="545" y="795" font-size="12" text-anchor="middle" transform="rotate(3 545 795)">FRETVM SICVLVM</text>
    <text id="board-eastern-med-label" class="sea-label" x="1200" y="770" font-size="13.5" text-anchor="middle" transform="rotate(-3 1200 770)">MARE INTERNVM ORIENTALE</text>
    <text id="board-crete-label" class="sea-label" x="900" y="800" font-size="12" text-anchor="middle" transform="rotate(2 900 800)">MARE CRETICVM</text>
    <text id="board-marmara-label" class="sea-label" x="1038" y="396" font-size="8" text-anchor="middle" transform="rotate(-8 1038 396)">PROPONTIS</text>
  </g>

  <!-- sea creatures: serpent (Mare Maius), kraken (Tyrrhenian), whale (off Lycia) -->
  <g id="board-creatures">
    <g id="board-serpent" transform="translate(373,23) scale(.75)" stroke="#2B2118" stroke-opacity=".5" fill="none"
       stroke-width="2" stroke-linecap="round">
      <path d="M1344,170 q18,-26 42,-12 q22,13 8,30 q-10,12 -24,4"/>
      <path d="M1394,188 q26,-30 52,-12 q24,17 6,36 q-12,13 -28,4"/>
      <path d="M1452,208 q26,-28 50,-10 q20,15 4,32"/>
      <path d="M1324,176 q-14,-12 -26,-2 q-9,8 -2,17"
            stroke-width="1.6"/>
      <!-- head -->
      <path d="M1506,230 q16,-6 22,6 q5,10 -6,15 q-9,4 -16,-3 l-8,6"
            stroke-width="2"/>
      <circle cx="1516" cy="236" r="1.6" fill="#2B2118" fill-opacity=".6" stroke="none"/>
      <path d="M1528,234 l8,-2 M1528,238 l8,3" stroke-width="1.2"/>
    </g>
    <g id="board-kraken" transform="translate(-45,10)" stroke="#2B2118" stroke-opacity=".5" fill="none"
       stroke-width="1.8" stroke-linecap="round">
      <path d="M362,682 q-5,-28 16,-39 q23,-13 41,4 q16,15 7,37"/>
      <path d="M370,660 q8,-9 19,-8 M400,653 q10,0 16,8" stroke-width="1.3"/>
      <circle cx="384" cy="668" r="2.2" fill="#2B2118" fill-opacity=".55" stroke="none"/>
      <circle cx="400" cy="670" r="2.2" fill="#2B2118" fill-opacity=".55" stroke="none"/>
      <path d="M366,682 q-14,16 -32,11 q13,5 18,16 q4,9 -4,14"/>
      <path d="M379,687 q-5,20 -21,27 q16,-2 23,9"/>
      <path d="M395,689 q5,20 23,25 q-16,0 -20,13"/>
      <path d="M411,682 q16,11 34,7 q-14,7 -16,18 q-1,8 6,12"/>
    </g>
    <g id="board-whale" transform="translate(195,166) scale(.7)" stroke="#2B2118" stroke-opacity=".5" fill="none"
       stroke-width="1.8" stroke-linecap="round">
      <path d="M1380,806 q28,-22 62,-12 q26,8 30,24 q-30,10 -62,4 q-22,-4 -30,-16 Z"/>
      <path d="M1472,818 q16,-4 22,-16 q2,14 -8,22"/>
      <circle cx="1398" cy="800" r="1.8" fill="#2B2118" fill-opacity=".55" stroke="none"/>
      <path d="M1410,788 q-2,-12 6,-18 M1410,788 q6,-10 16,-12" stroke-width="1.3"/>
      <path d="M1352,812 q10,-6 22,-2" stroke-width="1.3"/>
    </g>
  </g>

  <!-- coastal halo: lapis water shading hugging every shore -->
  <g id="board-coast-halo" clip-path="url(#board-field-clip)" fill="none" stroke="#1F4E79" stroke-opacity=".22" stroke-width="7" stroke-linejoin="round" pointer-events="none">
    <path d="M754.6,60.0 L740.0,60.0 L725.4,60.0 L710.9,60.0 L696.3,60.0 L681.7,60.0 L667.1,60.0 L652.5,60.0 L637.9,60.0 L623.3,60.0 L608.7,60.0 L594.2,60.0 L579.6,60.0 L565.0,60.0 L540.0,60.0 L431.3,60.0 L125.8,60.0 L60.0,60.0 L60.0,196.0 L69.2,199.6 L78.0,203.3 L86.6,207.1 L95.4,211.0 L105.8,218.8 L117.9,223.3 L129.7,228.8 L142.6,229.9 L154.5,236.0 L166.5,242.1 L179.8,246.2 L193.9,246.2 L202.0,248.2 L210.1,250.4 L217.5,254.8 L225.0,259.4 L230.6,266.6 L236.2,273.7 L243.7,279.1 L251.1,284.5 L259.9,290.5 L268.6,296.5 L277.1,302.4 L285.6,308.3 L295.6,314.7 L306.1,319.4 L315.2,317.1 L324.3,314.5 L334.5,318.9 L344.1,323.6 L344.3,323.7 L354.8,333.2 L364.8,342.8 L372.9,347.5 L380.8,352.3 L386.0,360.0 L391.1,367.8 L396.1,374.8 L401.1,381.8 L402.6,385.5 L407.9,398.0 L412.8,406.2 L417.8,414.3 L420.3,423.6 L423.0,433.0 L429.9,438.7 L436.7,444.4 L442.6,450.9 L448.4,457.3 L451.4,465.7 L454.3,474.1 L453.5,483.4 L452.7,492.7 L457.1,502.1 L461.5,511.4 L464.0,521.8 L466.9,532.1 L468.9,533.8 L479.1,541.7 L483.4,548.4 L487.8,555.0 L494.6,562.9 L501.4,570.8 L508.2,578.7 L514.9,586.7 L518.9,595.2 L522.6,603.6 L527.1,611.6 L531.3,619.5 L533.1,627.3 L534.7,635.1 L537.3,642.5 L539.9,650.0 L549.6,659.4 L562.5,664.8 L568.3,659.2 L574.1,653.6 L581.0,649.1 L587.8,644.5 L588.5,635.9 L589.0,627.2 L591.9,619.0 L594.5,610.8 L592.1,601.7 L589.3,592.4 L583.1,584.3 L576.7,576.0 L580.1,569.5 L583.5,562.9 L583.8,554.9 L584.2,546.8 L598.3,545.5 L612.3,542.9 L615.1,541.5 L626.6,535.5 L633.3,530.8 L640.1,526.2 L633.2,514.5 L622.9,506.0 L614.5,499.8 L606.2,493.4 L598.2,486.5 L590.1,479.5 L584.8,471.5 L579.4,463.4 L571.7,457.5 L563.8,451.6 L554.5,439.0 L542.8,428.6 L548.4,419.1 L554.2,409.8 L543.1,410.5 L532.1,412.1 L523.4,403.5 L517.9,398.2 L509.0,394.6 L500.2,391.3 L494.3,383.0 L485.6,378.1 L482.6,368.8 L480.2,359.2 L478.7,349.7 L477.0,340.1 L476.3,339.0 L471.5,331.8 L466.3,324.4 L464.2,315.9 L461.7,307.4 L461.3,298.2 L460.5,289.0 L464.3,280.5 L468.0,271.8 L468.8,264.8 L470.2,252.7 L480.4,245.3 L489.0,235.7 L496.9,236.1 L504.9,236.6 L513.3,236.9 L521.0,237.5 L527.2,243.4 L533.5,249.5 L536.2,252.1 L538.0,248.0 L540.8,242.0 L549.0,234.6 L562.1,239.0 L564.4,240.6 L573.9,247.3 L588.1,255.2 L600.1,266.5 L609.2,273.9 L618.4,281.0 L626.4,289.1 L634.4,297.1 L640.4,303.9 L646.1,310.6 L653.1,316.0 L659.8,321.4 L663.7,329.6 L666.1,335.1 L671.2,340.6 L676.2,346.1 L682.0,351.5 L687.8,357.1 L691.4,364.3 L695.0,371.5 L697.1,378.7 L699.2,386.0 L699.0,390.0 L698.6,401.2 L702.8,409.0 L707.1,416.9 L712.1,424.5 L717.1,432.2 L717.2,445.3 L712.1,456.9 L718.0,466.0 L721.6,471.7 L723.7,480.0 L725.7,488.4 L724.9,496.3 L724.1,504.2 L721.4,511.6 L718.7,519.0 L723.7,526.3 L728.8,533.6 L731.7,542.0 L734.9,550.3 L738.5,557.7 L742.2,565.0 L742.9,572.8 L743.5,580.6 L750.8,591.6 L753.3,594.3 L759.5,601.0 L772.2,604.7 L785.3,603.3 L799.2,605.2 L811.0,611.5 L804.9,619.1 L797.5,624.1 L790.1,629.2 L783.1,634.8 L775.9,640.4 L773.0,649.0 L770.1,657.7 L765.9,666.1 L761.9,674.5 L767.2,682.1 L772.7,689.7 L776.2,698.7 L780.1,707.7 L788.1,710.5 L796.1,713.3 L804.5,715.4 L812.8,717.6 L819.9,709.5 L827.2,701.7 L836.9,698.0 L846.7,694.7 L851.5,684.9 L853.9,674.1 L858.7,664.0 L867.3,656.5 L865.0,648.2 L862.7,639.9 L859.1,632.1 L855.3,624.4 L849.9,618.1 L844.3,611.8 L836.5,608.8 L828.6,606.0 L834.1,602.1 L840.2,597.7 L850.2,591.3 L858.7,583.5 L869.8,578.1 L882.3,575.4 L875.8,563.9 L867.6,553.4 L857.5,540.9 L850.6,526.9 L851.5,513.4 L857.5,501.6 L857.0,500.8 L849.4,488.7 L842.7,475.2 L849.3,463.1 L851.5,455.0 L852.8,450.1 L865.4,445.6 L875.0,436.6 L885.1,440.3 L895.2,443.9 L896.0,432.7 L898.7,427.9 L901.4,423.2 L910.5,424.0 L919.6,424.6 L928.0,421.4 L936.5,418.1 L946.6,416.3 L956.7,414.5 L965.8,410.3 L975.1,406.2 L987.0,398.8 L998.1,390.2 L1013.2,388.4 L1027.5,383.4 L1032.1,374.9 L1036.8,366.4 L1025.8,359.0 L1015.3,350.7 L1011.1,340.0 L1005.0,329.9 L1006.0,329.1 L1014.5,321.6 L1020.0,310.5 L1030.4,304.0 L1036.3,293.4 L1036.2,285.3 L1036.1,277.2 L1038.5,269.8 L1041.0,262.4 L1042.4,254.5 L1044.1,246.5 L1048.5,239.7 L1053.1,232.9 L1049.4,219.7 L1050.5,206.1 L1045.7,197.6 L1043.9,194.4 L1040.0,181.4 L1043.3,174.1 L1046.5,166.9 L1047.8,159.0 L1048.9,151.2 L1052.4,144.2 L1055.9,137.2 L1057.9,129.6 L1060.1,122.0 L1062.4,114.9 L1065.0,107.7 L1064.8,100.2 L1065.0,92.1 L1066.8,83.4 L1068.3,74.7 L1071.6,67.1 L1075.0,60.0 L1060.5,60.0 L1046.0,60.0 L1031.5,60.0 L1017.0,60.0 L1002.5,60.0 L988.0,60.0 L973.5,60.0 L959.0,60.0 L944.5,60.0 L930.0,60.0 L915.5,60.0 L900.8,60.0 L886.2,60.0 L871.6,60.0 L856.9,60.0 L842.3,60.0 L827.7,60.0 L813.0,60.0 L798.4,60.0 L783.8,60.0 L769.2,60.0 Z M880.9,254.6 L893.8,259.2 L906.9,263.6 L920.0,267.7 L933.3,271.4 L946.7,275.0 L945.9,277.4 L947.6,280.4 L931.9,276.2 L918.6,272.5 L905.3,268.4 L892.2,264.0 L879.1,259.2 L866.1,254.3 L853.3,249.5 L841.5,242.7 L855.1,244.9 L867.9,249.7 Z M281.5,477.2 L284.2,486.9 L293.9,478.3 L305.0,471.4 L307.0,461.4 L308.9,451.3 L309.5,441.2 L310.0,431.1 L306.3,423.4 L302.7,415.7 L301.0,407.5 L299.4,399.4 L288.2,404.2 L275.9,404.8 L272.3,415.3 L273.4,426.8 L273.9,438.4 L270.2,448.8 L274.5,458.2 L278.6,467.5 Z M688.0,455.0 L676.0,461.5 L671.9,473.6 L680.6,486.3 L692.8,484.0 L695.1,475.4 L697.2,466.9 Z M280.5,601.5 L288.5,608.5 L296.2,615.2 L300.9,623.9 L305.2,632.5 L312.6,627.4 L320.0,622.1 L328.7,619.9 L337.3,617.6 L334.3,610.5 L330.9,603.4 L328.0,595.9 L324.9,588.5 L324.9,577.2 L326.1,566.0 L326.5,554.6 L325.5,543.0 L320.5,534.5 L315.8,526.0 L312.7,516.7 L309.8,507.4 L302.1,508.1 L294.4,508.6 L286.8,510.0 L279.2,511.3 L277.5,521.6 L276.0,532.0 L273.2,541.6 L270.7,551.2 L273.9,564.0 L274.6,576.5 L278.2,589.1 Z M453.4,756.5 L466.2,755.3 L478.9,751.3 L490.9,754.5 L503.6,755.5 L513.5,749.0 L523.3,742.8 L532.3,735.5 L543.5,732.9 L538.3,726.1 L533.1,719.4 L530.2,711.6 L527.5,703.8 L520.1,698.0 L512.9,692.5 L504.7,688.8 L496.7,685.3 L482.3,687.6 L468.1,688.5 L453.9,693.4 L441.4,701.6 L439.0,709.0 L436.8,716.3 L432.0,722.2 L427.3,728.1 L432.6,736.7 L437.8,745.3 L445.6,751.0 Z M541.3,852.0 L532.4,844.8 L526.3,835.5 L520.3,826.3 L512.9,828.4 L505.6,830.7 L498.4,833.5 L491.2,836.5 L484.7,831.1 L478.4,825.8 L473.2,819.4 L468.2,813.1 L458.0,803.8 L445.0,799.2 L441.8,791.7 L438.6,784.1 L433.6,777.6 L428.7,771.1 L421.5,779.4 L414.2,787.5 L405.1,793.2 L396.1,798.8 L386.4,798.7 L376.8,798.7 L367.1,799.6 L357.4,800.7 L348.2,804.3 L338.9,808.0 L329.6,811.6 L320.3,815.1 L309.6,815.1 L298.8,814.7 L288.3,816.2 L277.7,817.4 L267.2,818.7 L256.7,819.8 L245.8,818.5 L235.0,817.3 L223.6,815.3 L212.3,813.8 L201.1,815.5 L190.0,817.7 L178.7,818.2 L167.4,818.9 L156.7,823.4 L146.1,827.7 L135.1,824.1 L124.3,820.1 L112.8,820.6 L101.4,820.8 L90.2,821.1 L80.1,820.8 L70.4,816.1 L60.0,812.0 L60.0,826.2 L60.0,840.4 L60.0,854.7 L60.0,868.9 L60.0,883.1 L60.0,897.3 L60.0,911.6 L60.0,925.8 L60.0,940.0 L74.7,940.0 L89.5,940.0 L104.2,940.0 L119.0,940.0 L133.7,940.0 L148.5,940.0 L163.2,940.0 L178.0,940.0 L192.7,940.0 L207.5,940.0 L222.2,940.0 L237.0,940.0 L251.7,940.0 L266.5,940.0 L281.2,940.0 L295.9,940.0 L310.7,940.0 L325.4,940.0 L340.2,940.0 L354.9,940.0 L369.7,940.0 L384.4,940.0 L399.2,940.0 L413.9,940.0 L428.7,940.0 L443.4,940.0 L458.2,940.0 L472.9,940.0 L487.7,940.0 L502.4,940.0 L517.1,940.0 L531.9,940.0 L546.6,940.0 L561.4,940.0 L576.1,940.0 L590.9,940.0 L605.6,940.0 L620.3,940.0 L635.0,940.0 L649.7,940.0 L664.3,940.0 L679.0,940.0 L693.7,940.0 L708.4,940.0 L723.1,940.0 L737.8,940.0 L752.5,940.0 L767.2,940.0 L781.9,940.0 L796.6,940.0 L811.3,940.0 L826.0,940.0 L840.7,940.0 L855.4,940.0 L870.0,940.0 L884.7,940.0 L899.4,940.0 L913.9,940.0 L928.4,940.0 L942.9,940.0 L957.4,940.0 L971.9,940.0 L986.5,940.0 L1001.0,940.0 L1015.5,940.0 L1030.0,940.0 L1044.5,940.0 L1059.0,940.0 L1073.5,940.0 L1088.0,940.0 L1102.5,940.0 L1117.0,940.0 L1131.5,940.0 L1146.0,940.0 L1160.5,940.0 L1175.0,940.0 L1189.5,940.0 L1204.0,940.0 L1218.6,940.0 L1233.2,940.0 L1247.8,940.0 L1262.4,940.0 L1277.0,940.0 L1291.7,940.0 L1306.3,940.0 L1320.9,940.0 L1335.5,940.0 L1350.1,940.0 L1364.7,940.0 L1379.3,940.0 L1393.9,940.0 L1408.5,940.0 L1423.1,940.0 L1437.7,940.0 L1452.3,940.0 L1467.0,940.0 L1481.6,940.0 L1496.2,940.0 L1510.8,940.0 L1525.4,940.0 L1540.0,940.0 L1540.0,925.3 L1540.0,910.7 L1540.0,896.0 L1540.0,881.3 L1540.0,866.7 L1540.0,852.0 L1540.0,838.2 L1540.0,824.4 L1540.0,810.5 L1540.0,796.7 L1540.0,782.9 L1540.0,769.1 L1540.0,755.3 L1540.0,741.5 L1540.0,727.6 L1540.0,713.8 L1540.0,700.0 L1540.0,687.3 L1540.0,674.6 L1540.0,661.9 L1540.0,649.2 L1540.0,636.5 L1529.9,627.7 L1521.2,619.1 L1512.5,610.7 L1502.2,602.1 L1490.9,593.4 L1479.3,584.5 L1467.5,575.8 L1455.5,567.3 L1443.4,559.0 L1431.4,551.1 L1419.6,543.5 L1407.9,536.0 L1392.8,403.2 L1540.0,381.5 L1540.0,367.3 L1540.0,353.1 L1540.0,338.9 L1540.0,324.7 L1540.0,310.4 L1540.0,296.2 L1540.0,282.0 L1530.6,280.4 L1521.8,278.9 L1513.2,280.1 L1504.2,281.1 L1494.9,282.7 L1485.6,284.1 L1475.9,284.2 L1466.2,284.3 L1459.1,286.5 L1452.0,288.7 L1444.3,288.2 L1436.5,287.8 L1429.1,289.7 L1421.7,291.7 L1414.0,291.7 L1406.3,291.8 L1393.3,291.4 L1392.8,291.4 L1380.3,290.8 L1368.4,295.3 L1355.5,296.0 L1342.4,293.4 L1330.0,294.8 L1317.0,293.1 L1305.0,295.6 L1295.9,295.5 L1286.8,295.6 L1278.0,297.1 L1269.2,298.9 L1264.4,293.9 L1253.6,283.1 L1248.0,292.8 L1239.3,299.8 L1229.1,301.1 L1218.9,302.2 L1209.7,306.1 L1200.4,309.8 L1190.0,312.5 L1179.1,313.1 L1168.0,312.8 L1157.5,315.9 L1147.3,316.4 L1137.2,317.1 L1135.9,317.7 L1127.0,321.9 L1117.9,326.3 L1108.6,330.3 L1099.2,334.4 L1090.2,339.6 L1081.0,344.5 L1074.7,349.7 L1068.3,354.8 L1061.5,359.1 L1054.6,363.2 L1067.0,367.6 L1079.3,371.5 L1084.4,378.6 L1089.5,385.7 L1083.1,392.7 L1076.7,399.7 L1068.6,403.9 L1060.5,407.8 L1053.5,404.0 L1046.6,400.1 L1034.7,404.2 L1022.1,404.4 L1010.8,409.7 L999.7,414.9 L1008.1,424.7 L1006.8,427.2 L1003.3,434.5 L999.7,441.7 L1002.8,449.3 L1005.7,456.9 L1009.6,464.2 L1013.5,471.5 L1009.5,478.3 L1005.4,485.1 L1004.3,493.2 L1003.3,501.3 L1007.7,514.3 L1013.1,527.1 L1008.5,535.1 L1004.1,543.0 L1002.9,545.4 L1016.7,551.2 L1028.8,561.0 L1027.7,572.2 L1022.4,581.2 L1032.7,590.4 L1042.5,599.6 L1039.5,609.2 L1036.0,618.6 L1038.1,631.2 L1038.2,632.3 L1044.1,644.6 L1045.5,658.1 L1050.9,670.2 L1060.8,667.7 L1070.6,664.7 L1075.9,669.8 L1081.1,674.8 L1085.1,680.9 L1089.3,687.0 L1097.7,682.7 L1106.1,678.3 L1109.7,676.5 L1116.1,679.7 L1121.9,682.7 L1122.5,683.0 L1128.4,687.4 L1134.4,691.9 L1148.8,688.4 L1162.2,681.9 L1164.7,673.1 L1167.6,664.4 L1176.1,663.9 L1184.7,663.3 L1192.6,666.2 L1200.5,668.9 L1202.9,666.9 L1209.2,661.5 L1215.6,656.1 L1222.6,648.9 L1229.6,641.6 L1234.4,650.2 L1239.1,658.7 L1246.5,654.2 L1253.8,649.8 L1261.5,646.0 L1269.1,642.4 L1276.6,645.5 L1284.1,648.8 L1292.0,651.6 L1299.9,654.6 L1300.8,654.5 L1310.8,653.4 L1320.8,652.5 L1331.2,652.1 L1341.7,651.5 L1351.9,652.9 L1362.0,654.0 L1372.2,654.3 L1382.3,654.3 L1392.8,655.6 L1403.3,656.5 L1412.2,660.6 L1421.0,664.7 L1435.6,664.4 L1448.4,669.4 L1459.6,661.9 L1470.2,653.7 L1471.5,660.7 L1472.8,667.8 L1477.0,673.6 L1481.3,679.5 L1479.4,691.8 L1481.4,704.3 L1477.5,716.5 L1478.5,729.0 L1477.7,742.0 L1472.4,754.2 L1473.3,767.6 L1469.0,780.0 L1465.6,794.2 L1457.2,806.4 L1453.5,820.5 L1444.8,830.4 L1440.1,843.0 L1431.2,852.7 L1423.2,848.0 L1415.3,843.4 L1407.0,839.7 L1398.7,836.0 L1390.7,833.0 L1382.8,829.8 L1374.1,829.1 L1365.5,828.2 L1358.5,832.2 L1351.6,836.0 L1343.5,836.5 L1335.4,836.8 L1328.9,841.3 L1322.5,845.8 L1315.8,849.6 L1309.1,853.5 L1295.7,853.0 L1282.3,852.7 L1271.3,858.9 L1258.1,860.9 L1246.2,860.1 L1234.3,860.0 L1224.1,864.8 L1213.3,868.1 L1205.3,866.3 L1200.3,865.1 L1187.4,864.8 L1174.5,862.7 L1161.6,860.1 L1149.4,851.4 L1137.1,843.5 L1123.3,840.8 L1109.4,838.8 L1095.9,839.7 L1082.5,837.8 L1069.0,835.8 L1056.5,830.0 L1041.8,830.2 L1027.1,830.6 L1013.2,834.6 L998.0,832.1 L985.7,834.4 L974.3,839.0 L964.8,846.4 L957.9,856.2 L946.6,861.8 L934.5,866.0 L924.9,873.9 L914.4,880.5 L900.7,876.5 L899.3,876.6 L887.2,877.1 L873.6,875.6 L860.1,873.4 L849.5,868.1 L839.4,861.8 L829.4,855.7 L819.5,849.7 L812.1,847.6 L804.7,845.7 L797.1,845.7 L789.5,845.7 L782.0,845.4 L774.5,845.1 L766.9,845.0 L759.3,844.8 L751.9,842.7 L744.4,840.3 L736.8,840.8 L729.2,841.1 L721.6,839.7 L714.0,838.3 L706.5,835.8 L698.9,833.3 L688.0,833.9 L676.9,834.6 L666.5,838.2 L654.9,837.6 L646.1,840.8 L637.3,844.1 L628.4,847.2 L619.5,850.2 L610.0,850.0 L600.5,849.4 L596.0,851.0 L583.6,854.8 L575.4,856.5 L567.2,858.1 L558.7,858.7 L550.2,859.4 Z M1019.3,349.7 L1035.2,356.0 L1038.7,347.5 L1027.5,338.8 L1015.5,343.7 Z M958.0,452.0 L954.9,446.7 L950.0,443.0 L945.8,445.3 L940.5,445.2 L936.0,448.0 L937.1,453.1 L937.0,458.0 L942.8,460.5 L949.0,461.0 L952.7,456.0 Z M990.5,475.9 L996.0,472.0 L993.4,465.9 L989.0,461.0 L983.4,463.5 L977.3,463.2 L972.0,466.0 L971.3,471.5 L972.0,477.0 L976.1,477.6 L980.1,480.4 L986.0,481.0 Z M1002.5,520.0 L999.5,515.3 L997.5,510.0 L990.6,511.9 L985.5,515.0 L985.0,519.6 L983.5,524.0 L988.2,526.7 L993.5,528.0 L997.7,523.6 Z M914.2,575.9 L921.4,569.5 L928.6,562.8 L919.1,550.9 L908.0,540.6 L903.8,533.3 L899.8,526.0 L894.4,519.7 L889.1,513.3 L881.4,504.1 L871.6,497.6 L865.4,503.3 L859.3,509.0 L868.2,518.5 L873.5,530.6 L882.9,542.3 L892.4,554.2 L904.5,564.0 Z M936.6,644.6 L941.0,641.0 L938.0,634.8 L933.0,630.0 L928.2,632.7 L922.6,633.1 L918.0,636.0 L916.7,641.4 L917.0,647.0 L924.3,648.7 L931.0,652.0 L934.7,649.3 Z M909.8,767.9 L920.9,770.8 L932.5,771.3 L944.3,776.5 L957.3,777.8 L970.4,779.1 L983.3,775.7 L992.0,770.8 L1000.7,766.1 L1010.6,765.4 L1020.6,764.7 L1009.3,759.6 L999.3,752.2 L986.7,748.2 L973.7,747.8 L960.9,748.5 L948.2,746.3 L936.9,747.6 L925.6,748.6 L914.8,745.1 L903.6,743.6 L891.6,743.3 L879.7,743.2 L869.4,748.8 L857.8,750.9 L854.6,764.1 L863.0,764.2 L871.4,764.5 L879.3,768.1 L887.2,771.6 L898.4,769.3 Z M1137.5,101.5 L1133.5,110.0 L1129.7,118.5 L1135.7,126.4 L1141.8,134.4 L1145.4,143.9 L1149.0,153.5 L1156.1,160.9 L1163.1,168.5 L1171.9,173.6 L1180.7,178.8 L1189.6,182.9 L1198.5,187.0 L1207.0,191.6 L1215.6,196.1 L1224.6,195.3 L1233.7,194.4 L1242.5,191.6 L1251.4,188.8 L1258.6,184.2 L1265.8,179.8 L1270.8,173.0 L1275.7,166.4 L1283.1,164.4 L1290.6,162.7 L1298.2,161.6 L1305.8,160.6 L1312.5,156.2 L1319.1,151.9 L1325.2,146.9 L1331.3,142.0 L1323.8,137.3 L1316.4,132.7 L1309.2,127.7 L1302.0,122.9 L1295.5,111.1 L1285.9,101.9 L1287.5,91.2 L1286.3,81.0 L1284.7,70.8 L1284.0,60.0 L1269.0,60.0 L1254.0,60.0 L1239.0,60.0 L1224.0,60.0 L1209.0,60.0 L1194.0,60.0 L1179.0,60.0 L1164.0,60.0 L1158.8,66.1 L1153.6,72.0 L1150.5,78.8 L1146.9,85.6 L1142.0,93.3 Z M1118.9,688.7 L1116.3,684.3 L1113.1,685.7 L1103.2,690.3 L1090.1,696.4 L1088.4,705.6 L1087.0,714.7 L1097.3,718.0 L1108.0,720.0 L1119.4,712.3 L1128.4,702.0 L1121.8,693.4 Z M1317.4,722.4 L1328.0,721.6 L1338.7,720.6 L1344.2,713.3 L1349.9,705.9 L1357.0,699.5 L1364.1,692.9 L1354.3,693.5 L1344.5,693.8 L1335.7,697.7 L1327.1,701.4 L1316.8,700.1 L1306.5,698.8 L1296.5,699.8 L1286.5,701.0 L1276.8,704.4 L1267.2,708.1 L1256.9,709.8 L1246.6,711.7 L1251.9,720.1 L1257.2,728.6 L1267.1,726.3 L1277.0,724.3 L1287.2,726.0 L1297.4,728.0 L1307.4,725.1 Z"/>
  </g>

  <!-- provinces (55 land provinces, canonical MAP.md ids) -->
  <g id="board-provinces">
    <path id="constantinople" class="province" data-start-owner="byzantium" d="M1011.1,340.0 L1015.3,350.7 L1025.8,359.0 L1036.8,366.4 L1032.1,374.9 L1027.5,383.4 L1018.5,376.5 L1012.0,365.0 L1008.5,352.0 Z"><title>Constantinople</title></path>
    <path id="selymbria" class="province" data-start-owner="byzantium" d="M987.0,398.8 L983.0,387.0 L979.5,376.5 L984.5,365.5 L993.0,356.0 L1000.5,349.5 L1011.1,340.0 L1008.5,352.0 L1012.0,365.0 L1018.5,376.5 L1027.5,383.4 L1013.2,388.4 L998.1,390.2 Z"><title>Selymbria</title></path>
    <path id="pera" class="province" data-start-owner="genoa" d="M1015.5,343.7 L1027.5,338.8 L1038.7,347.5 L1035.2,356.0 L1019.3,349.7 Z"><title>Pera</title></path>
    <path id="edirne" class="province" data-start-owner="ottoman" d="M875.0,374.2 L885.8,365.6 L896.7,356.9 L907.6,347.9 L918.4,338.7 L928.9,329.3 L939.0,319.7 L948.7,309.9 L965.1,315.5 L977.2,322.6 L989.1,330.0 L1000.8,337.7 L1011.1,340.0 L1000.5,349.5 L993.0,356.0 L984.5,365.5 L979.5,376.5 L983.0,387.0 L987.0,398.8 L978.0,391.5 L963.0,392.5 L946.0,396.5 L929.5,401.0 L914.5,407.5 L903.5,415.5 L898.7,427.9 L892.0,414.4 L885.7,401.0 L880.0,387.6 Z"><title>Edirne</title></path>
    <path id="gallipoli" class="province" data-start-owner="ottoman" d="M898.7,427.9 L903.5,415.5 L914.5,407.5 L929.5,401.0 L946.0,396.5 L963.0,392.5 L978.0,391.5 L987.0,398.8 L975.1,406.2 L965.8,410.3 L956.7,414.5 L946.6,416.3 L936.5,418.1 L928.0,421.4 L919.6,424.6 L910.5,424.0 L901.4,423.2 Z"><title>Gallipoli</title></path>
    <path id="philippopolis" class="province" data-start-owner="ottoman" d="M879.1,259.2 L892.2,264.0 L905.3,268.4 L918.6,272.5 L931.9,276.2 L947.6,280.4 L952.1,288.8 L957.9,300.2 L970.3,306.9 L982.4,314.0 L994.3,321.4 L1006.0,329.1 L1005.0,329.9 L1011.1,340.0 L1000.8,337.7 L989.1,330.0 L977.2,322.6 L965.1,315.5 L948.7,309.9 L939.0,319.7 L928.9,329.3 L918.4,338.7 L907.6,347.9 L896.7,356.9 L885.8,365.6 L875.0,374.2 L873.5,356.0 L878.5,338.0 L883.0,322.0 L887.5,307.0 L889.0,291.0 L884.0,275.0 Z"><title>Philippopolis</title></path>
    <path id="sofia" class="province" data-start-owner="ottoman" d="M841.5,242.7 L853.3,249.5 L866.1,254.3 L879.1,259.2 L884.0,275.0 L889.0,291.0 L887.5,307.0 L883.0,322.0 L878.5,338.0 L873.5,356.0 L875.0,374.2 L865.5,367.1 L856.0,360.0 L846.7,353.3 L837.3,346.8 L828.3,359.0 L819.5,371.4 L811.1,384.0 L803.2,396.9 L796.1,409.6 L789.3,422.4 L782.8,435.4 L776.2,448.4 L780.0,434.5 L783.9,420.7 L788.0,407.0 L792.6,393.4 L797.0,381.6 L801.8,369.7 L806.9,358.0 L812.1,346.2 L817.0,334.4 L822.1,321.4 L826.5,308.4 L830.1,295.3 L833.0,282.2 L835.7,269.1 L838.4,255.9 Z"><title>Sofia</title></path>
    <path id="varna" class="province" data-start-owner="minor" d="M981.1,194.2 L994.1,194.8 L1007.0,195.6 L1020.0,196.6 L1032.9,197.3 L1045.7,197.6 L1050.5,206.1 L1049.4,219.7 L1053.1,232.9 L1048.5,239.7 L1044.1,246.5 L1042.4,254.5 L1041.0,262.4 L1038.5,269.8 L1036.1,277.2 L1036.2,285.3 L1036.3,293.4 L1030.4,304.0 L1020.0,310.5 L1014.5,321.6 L1006.0,329.1 L994.3,321.4 L982.4,314.0 L970.3,306.9 L957.9,300.2 L952.1,288.8 L947.6,280.4 L945.9,277.4 L946.7,275.0 L950.6,263.4 L955.6,249.4 L961.2,235.5 L967.5,221.6 L974.2,207.8 Z"><title>Varna</title></path>
    <path id="wallachia" class="province" data-start-owner="minor" d="M915.5,60.0 L930.0,60.0 L944.5,60.0 L959.0,60.0 L973.5,60.0 L988.0,60.0 L1002.5,60.0 L1017.0,60.0 L1031.5,60.0 L1046.0,60.0 L1060.5,60.0 L1075.0,60.0 L1071.6,67.1 L1068.3,74.7 L1066.8,83.4 L1065.0,92.1 L1064.8,100.2 L1065.0,107.7 L1062.4,114.9 L1060.1,122.0 L1057.9,129.6 L1055.9,137.2 L1052.4,144.2 L1048.9,151.2 L1047.8,159.0 L1046.5,166.9 L1043.3,174.1 L1040.0,181.4 L1043.9,194.4 L1045.7,197.6 L1032.9,197.3 L1020.0,196.6 L1007.0,195.6 L994.1,194.8 L981.1,194.2 L974.2,207.8 L967.5,221.6 L961.2,235.5 L955.6,249.4 L950.6,263.4 L946.7,275.0 L933.3,271.4 L920.0,267.7 L906.9,263.6 L893.8,259.2 L880.9,254.6 L867.9,249.7 L855.1,244.9 L841.5,242.7 L836.8,228.5 L825.6,220.8 L814.6,213.7 L803.8,207.0 L793.0,200.7 L782.1,194.4 L771.3,188.1 L760.3,181.5 L767.1,171.0 L777.7,177.4 L788.1,183.6 L798.4,189.9 L808.6,196.4 L818.8,203.3 L829.1,210.6 L839.5,218.5 L850.1,209.1 L860.8,200.1 L871.7,191.2 L882.5,182.4 L893.1,173.5 L903.7,164.4 L914.0,155.1 L924.3,145.7 L921.5,131.4 L919.1,117.1 L917.2,103.0 L916.8,88.9 L917.0,74.6 Z"><title>Wallachia</title></path>
    <path id="serbia" class="province" data-start-owner="minor" d="M713.9,242.1 L721.1,232.0 L728.7,221.7 L736.4,211.3 L744.2,200.7 L751.9,189.9 L760.3,181.5 L771.3,188.1 L782.1,194.4 L793.0,200.7 L803.8,207.0 L814.6,213.7 L825.6,220.8 L836.8,228.5 L841.5,242.7 L838.4,255.9 L835.7,269.1 L833.0,282.2 L830.1,295.3 L826.5,308.4 L822.1,321.4 L817.0,334.4 L812.1,346.2 L806.9,358.0 L801.8,369.7 L797.0,381.6 L792.6,393.4 L788.0,407.0 L783.9,420.7 L780.0,434.5 L776.2,448.4 L775.0,434.3 L773.9,420.4 L773.1,406.6 L772.9,392.9 L773.5,379.2 L774.7,365.6 L781.1,356.9 L787.5,348.1 L778.8,341.0 L769.9,333.8 L760.7,326.2 L751.0,318.1 L741.0,309.6 L730.6,300.7 L719.9,291.5 L718.1,279.3 L716.4,266.9 L714.9,254.5 Z"><title>Serbia</title></path>
    <path id="bosnia" class="province" data-start-owner="minor" d="M628.7,189.7 L644.0,202.2 L654.1,220.0 L668.9,232.9 L684.0,235.6 L699.0,238.8 L713.9,242.1 L714.9,254.5 L716.4,266.9 L718.1,279.3 L719.9,291.5 L710.0,296.4 L700.0,301.3 L689.8,306.2 L679.4,311.4 L671.4,301.7 L663.0,292.0 L654.4,282.4 L645.6,272.8 L636.9,263.1 L637.1,251.7 L637.6,240.3 L638.6,228.8 L629.2,220.1 L628.9,204.9 Z"><title>Bosnia</title></path>
    <path id="albania" class="province" data-start-owner="minor" d="M719.9,291.5 L730.6,300.7 L741.0,309.6 L751.0,318.1 L760.7,326.2 L769.9,333.8 L778.8,341.0 L787.5,348.1 L781.1,356.9 L774.7,365.6 L773.5,379.2 L772.9,392.9 L773.1,406.6 L773.9,420.4 L775.0,434.3 L776.2,448.4 L764.7,452.9 L753.1,457.0 L741.5,460.5 L729.8,463.5 L718.0,466.0 L712.1,456.9 L717.2,445.3 L717.1,432.2 L712.1,424.5 L707.1,416.9 L702.8,409.0 L698.6,401.2 L699.0,390.0 L711.6,386.9 L713.0,371.8 L716.3,356.2 L720.6,343.9 L724.0,329.5 L723.2,311.0 Z"><title>Albania</title></path>
    <path id="epirus" class="province" data-start-owner="minor" d="M776.2,448.4 L780.2,451.9 L780.3,465.6 L780.1,479.4 L779.6,493.2 L779.0,507.1 L778.8,521.0 L779.2,534.8 L780.2,548.6 L781.8,562.2 L777.5,573.7 L773.0,585.0 L763.2,589.9 L753.3,594.3 L750.8,591.6 L743.5,580.6 L742.9,572.8 L742.2,565.0 L738.5,557.7 L734.9,550.3 L731.7,542.0 L728.8,533.6 L723.7,526.3 L718.7,519.0 L721.4,511.6 L724.1,504.2 L724.9,496.3 L725.7,488.4 L723.7,480.0 L721.6,471.7 L718.0,466.0 L729.8,463.5 L741.5,460.5 L753.1,457.0 L764.7,452.9 Z"><title>Epirus</title></path>
    <path id="thessaly" class="province" data-start-owner="minor" d="M776.2,448.4 L786.4,444.8 L797.3,443.6 L808.6,451.3 L822.9,451.7 L837.2,453.0 L851.5,455.0 L849.3,463.1 L842.7,475.2 L849.4,488.7 L857.0,500.8 L845.6,508.4 L834.4,516.3 L823.4,524.8 L812.7,533.7 L802.2,543.0 L791.9,552.6 L789.5,566.0 L788.9,580.0 L787.6,592.0 L785.3,603.3 L772.2,604.7 L759.5,601.0 L753.3,594.3 L763.2,589.9 L773.0,585.0 L777.5,573.7 L781.8,562.2 L780.2,548.6 L779.2,534.8 L778.8,521.0 L779.0,507.1 L779.6,493.2 L780.1,479.4 L780.3,465.6 L780.2,451.9 Z"><title>Thessaly</title></path>
    <path id="thessalonica" class="province" data-start-owner="byzantium" d="M837.3,346.8 L846.7,353.3 L856.0,360.0 L865.5,367.1 L875.0,374.2 L880.0,387.6 L885.7,401.0 L892.0,414.4 L898.7,427.9 L896.0,432.7 L895.2,443.9 L885.1,440.3 L875.0,436.6 L865.4,445.6 L852.8,450.1 L851.5,455.0 L837.2,453.0 L822.9,451.7 L808.6,451.3 L797.3,443.6 L786.4,444.8 L776.2,448.4 L782.8,435.4 L789.3,422.4 L796.1,409.6 L803.2,396.9 L811.1,384.0 L819.5,371.4 L828.3,359.0 Z"><title>Thessalonica</title></path>
    <path id="athens" class="province" data-start-owner="minor" d="M791.9,552.6 L802.2,543.0 L812.7,533.7 L823.4,524.8 L834.4,516.3 L845.6,508.4 L857.0,500.8 L857.5,501.6 L851.5,513.4 L850.6,526.9 L857.5,540.9 L867.6,553.4 L875.8,563.9 L882.3,575.4 L869.8,578.1 L858.7,583.5 L850.2,591.3 L840.2,597.7 L834.1,602.1 L828.6,606.0 L819.5,607.5 L811.0,611.5 L799.2,605.2 L785.3,603.3 L787.6,592.0 L788.9,580.0 L789.5,566.0 Z"><title>Athens</title></path>
    <path id="morea" class="province" data-start-owner="byzantium" d="M811.0,611.5 L819.5,607.5 L828.6,606.0 L836.5,608.8 L844.3,611.8 L849.9,618.1 L855.3,624.4 L859.1,632.1 L862.7,639.9 L865.0,648.2 L867.3,656.5 L858.7,664.0 L853.9,674.1 L851.5,684.9 L846.7,694.7 L836.9,698.0 L827.2,701.7 L819.9,709.5 L812.8,717.6 L804.5,715.4 L800.6,707.0 L797.7,698.3 L795.0,686.3 L792.9,674.4 L786.6,666.3 L780.6,658.2 L773.0,649.0 L775.9,640.4 L783.1,634.8 L790.1,629.2 L797.5,624.1 L804.9,619.1 Z"><title>Morea</title></path>
    <path id="modon" class="province" data-start-owner="venice" d="M773.0,649.0 L780.6,658.2 L786.6,666.3 L792.9,674.4 L795.0,686.3 L797.7,698.3 L800.6,707.0 L804.5,715.4 L796.1,713.3 L788.1,710.5 L780.1,707.7 L776.2,698.7 L772.7,689.7 L767.2,682.1 L761.9,674.5 L765.9,666.1 L770.1,657.7 Z"><title>Modon &amp; Coron</title></path>
    <path id="venice" class="province" data-start-owner="venice" d="M431.3,60.0 L540.0,60.0 L558.7,80.0 L552.7,91.7 L547.9,104.1 L544.0,116.8 L540.6,129.5 L537.4,142.4 L534.1,155.4 L530.4,168.6 L526.4,182.0 L522.1,195.6 L517.8,209.3 L513.8,223.1 L513.3,236.9 L504.9,236.6 L496.9,236.1 L489.0,235.7 L480.4,245.3 L470.2,252.7 L468.8,264.8 L457.0,259.6 L445.3,254.0 L433.8,247.9 L422.5,241.4 L411.2,234.5 L400.1,227.4 L402.8,213.4 L405.7,199.4 L408.5,185.5 L410.9,171.7 L412.9,158.0 L414.7,144.5 L416.4,131.0 L418.5,117.6 L421.2,104.3 L425.1,90.2 L428.8,74.8 Z"><title>Venice</title></path>
    <path id="milan" class="province" data-start-owner="minor" d="M125.8,60.0 L431.3,60.0 L428.8,74.8 L425.1,90.2 L421.2,104.3 L418.5,117.6 L416.4,131.0 L414.7,144.5 L412.9,158.0 L410.9,171.7 L408.5,185.5 L405.7,199.4 L402.8,213.4 L400.1,227.4 L411.2,234.5 L422.5,241.4 L433.8,247.9 L445.3,254.0 L457.0,259.6 L468.8,264.8 L468.0,271.8 L464.3,280.5 L460.5,289.0 L461.3,298.2 L461.7,307.4 L464.2,315.9 L466.3,324.4 L471.5,331.8 L476.3,339.0 L463.6,329.3 L455.9,315.3 L446.8,301.2 L433.0,292.1 L423.3,278.4 L409.4,269.8 L399.9,256.4 L386.2,247.1 L373.6,232.9 L360.1,227.6 L346.5,222.7 L333.0,218.1 L319.4,213.4 L305.8,208.4 L294.7,198.8 L283.5,188.7 L272.1,178.3 L260.6,167.7 L248.8,157.1 L236.9,146.7 L224.9,136.7 L212.9,127.3 L201.0,118.4 L189.4,110.2 L178.1,102.4 L167.2,94.8 L157.3,87.3 L147.5,78.8 L137.0,69.5 Z"><title>Milan</title></path>
    <path id="genoa" class="province" data-start-owner="genoa" d="M60.0,60.0 L125.8,60.0 L137.0,69.5 L147.5,78.8 L157.3,87.3 L167.2,94.8 L178.1,102.4 L189.4,110.2 L201.0,118.4 L212.9,127.3 L224.9,136.7 L236.9,146.7 L248.8,157.1 L260.6,167.7 L272.1,178.3 L283.5,188.7 L294.7,198.8 L305.8,208.4 L319.4,213.4 L333.0,218.1 L346.5,222.7 L360.1,227.6 L373.6,232.9 L369.0,245.9 L364.9,258.9 L361.1,272.0 L357.5,285.0 L353.7,297.9 L349.3,310.8 L344.1,323.6 L334.5,318.9 L324.3,314.5 L315.2,317.1 L306.1,319.4 L295.6,314.7 L285.6,308.3 L277.1,302.4 L268.6,296.5 L259.9,290.5 L251.1,284.5 L243.7,279.1 L236.2,273.7 L230.6,266.6 L225.0,259.4 L217.5,254.8 L210.1,250.4 L202.0,248.2 L193.9,246.2 L179.8,246.2 L166.5,242.1 L154.5,236.0 L142.6,229.9 L129.7,228.8 L117.9,223.3 L105.8,218.8 L95.4,211.0 L86.6,207.1 L78.0,203.3 L69.2,199.6 L60.0,196.0 Z"><title>Genoa</title></path>
    <path id="rome" class="province" data-start-owner="minor" d="M373.6,232.9 L386.2,247.1 L399.9,256.4 L409.4,269.8 L423.3,278.4 L433.0,292.1 L446.8,301.2 L455.9,315.3 L463.6,329.3 L476.3,339.0 L477.0,340.1 L478.7,349.7 L480.2,359.2 L482.6,368.8 L485.6,378.1 L494.3,383.0 L500.2,391.3 L509.0,394.6 L517.9,398.2 L523.4,403.5 L517.8,416.9 L512.6,430.6 L507.3,444.5 L501.7,458.7 L495.7,473.2 L489.4,487.7 L483.1,502.4 L477.0,517.1 L471.6,531.8 L468.9,533.8 L466.9,532.1 L464.0,521.8 L461.5,511.4 L457.1,502.1 L452.7,492.7 L453.5,483.4 L454.3,474.1 L451.4,465.7 L448.4,457.3 L442.6,450.9 L436.7,444.4 L429.9,438.7 L423.0,433.0 L420.3,423.6 L417.8,414.3 L412.8,406.2 L407.9,398.0 L402.6,385.5 L401.1,381.8 L396.1,374.8 L391.1,367.8 L386.0,360.0 L380.8,352.3 L372.9,347.5 L364.8,342.8 L354.8,333.2 L344.3,323.7 L344.1,323.6 L349.3,310.8 L353.7,297.9 L357.5,285.0 L361.1,272.0 L364.9,258.9 L369.0,245.9 Z"><title>Rome</title></path>
    <path id="naples" class="province" data-start-owner="minor" d="M523.4,403.5 L532.1,412.1 L543.1,410.5 L554.2,409.8 L548.4,419.1 L542.8,428.6 L554.5,439.0 L563.8,451.6 L571.7,457.5 L579.4,463.4 L584.8,471.5 L590.1,479.5 L598.2,486.5 L606.2,493.4 L614.5,499.8 L622.9,506.0 L633.2,514.5 L640.1,526.2 L633.3,530.8 L626.6,535.5 L615.1,541.5 L612.3,542.9 L598.3,545.5 L584.2,546.8 L583.8,554.9 L583.5,562.9 L580.1,569.5 L576.7,576.0 L583.1,584.3 L589.3,592.4 L592.1,601.7 L594.5,610.8 L591.9,619.0 L589.0,627.2 L588.5,635.9 L587.8,644.5 L581.0,649.1 L574.1,653.6 L568.3,659.2 L562.5,664.8 L549.6,659.4 L539.9,650.0 L537.3,642.5 L534.7,635.1 L533.1,627.3 L531.3,619.5 L527.1,611.6 L522.6,603.6 L518.9,595.2 L514.9,586.7 L508.2,578.7 L501.4,570.8 L494.6,562.9 L487.8,555.0 L483.4,548.4 L479.1,541.7 L468.9,533.8 L471.6,531.8 L477.0,517.1 L483.1,502.4 L489.4,487.7 L495.7,473.2 L501.7,458.7 L507.3,444.5 L512.6,430.6 L517.8,416.9 Z"><title>Naples</title></path>
    <path id="sicily" class="province" data-start-owner="minor" d="M436.8,716.3 L439.0,709.0 L441.4,701.6 L453.9,693.4 L468.1,688.5 L482.3,687.6 L496.7,685.3 L504.7,688.8 L512.9,692.5 L520.1,698.0 L527.5,703.8 L530.2,711.6 L533.1,719.4 L538.3,726.1 L543.5,732.9 L532.3,735.5 L523.3,742.8 L513.5,749.0 L503.6,755.5 L490.9,754.5 L478.9,751.3 L466.2,755.3 L453.4,756.5 L445.6,751.0 L437.8,745.3 L432.6,736.7 L427.3,728.1 L432.0,722.2 Z"><title>Sicily</title></path>
    <path id="tunis" class="province" data-start-owner="minor" d="M596.0,851.0 L596.9,863.8 L597.8,876.5 L598.2,889.1 L598.0,901.7 L595.7,914.2 L592.5,927.0 L590.9,940.0 L576.1,940.0 L561.4,940.0 L546.6,940.0 L531.9,940.0 L517.1,940.0 L502.4,940.0 L487.7,940.0 L472.9,940.0 L458.2,940.0 L443.4,940.0 L428.7,940.0 L413.9,940.0 L399.2,940.0 L384.4,940.0 L369.7,940.0 L354.9,940.0 L340.2,940.0 L325.4,940.0 L310.7,940.0 L295.9,940.0 L281.2,940.0 L266.5,940.0 L251.7,940.0 L237.0,940.0 L222.2,940.0 L207.5,940.0 L192.7,940.0 L178.0,940.0 L163.2,940.0 L148.5,940.0 L133.7,940.0 L119.0,940.0 L104.2,940.0 L89.5,940.0 L74.7,940.0 L60.0,940.0 L60.0,925.8 L60.0,911.6 L60.0,897.3 L60.0,883.1 L60.0,868.9 L60.0,854.7 L60.0,840.4 L60.0,826.2 L60.0,812.0 L70.4,816.1 L80.1,820.8 L90.2,821.1 L101.4,820.8 L112.8,820.6 L124.3,820.1 L135.1,824.1 L146.1,827.7 L156.7,823.4 L167.4,818.9 L178.7,818.2 L190.0,817.7 L201.1,815.5 L212.3,813.8 L223.6,815.3 L235.0,817.3 L245.8,818.5 L256.7,819.8 L267.2,818.7 L277.7,817.4 L288.3,816.2 L298.8,814.7 L309.6,815.1 L320.3,815.1 L329.6,811.6 L338.9,808.0 L348.2,804.3 L357.4,800.7 L367.1,799.6 L376.8,798.7 L386.4,798.7 L396.1,798.8 L405.1,793.2 L414.2,787.5 L421.5,779.4 L428.7,771.1 L433.6,777.6 L438.6,784.1 L441.8,791.7 L445.0,799.2 L458.0,803.8 L468.2,813.1 L473.2,819.4 L478.4,825.8 L484.7,831.1 L491.2,836.5 L498.4,833.5 L505.6,830.7 L512.9,828.4 L520.3,826.3 L526.3,835.5 L532.4,844.8 L541.3,852.0 L550.2,859.4 L558.7,858.7 L567.2,858.1 L575.4,856.5 L583.6,854.8 Z"><title>Tunis</title></path>
    <path id="dalmatia" class="province" data-start-owner="venice" d="M629.2,220.1 L638.6,228.8 L637.6,240.3 L637.1,251.7 L636.9,263.1 L645.6,272.8 L654.4,282.4 L663.0,292.0 L671.4,301.7 L679.4,311.4 L671.8,320.4 L663.7,329.6 L659.8,321.4 L653.1,316.0 L646.1,310.6 L640.4,303.9 L634.4,297.1 L626.4,289.1 L618.4,281.0 L609.2,273.9 L600.1,266.5 L588.1,255.2 L573.9,247.3 L564.4,240.6 L577.2,237.2 L590.1,233.6 L603.1,229.5 L616.1,225.0 Z"><title>Dalmatia</title></path>
    <path id="ragusa" class="province" data-start-owner="minor" d="M719.9,291.5 L723.2,311.0 L724.0,329.5 L720.6,343.9 L716.3,356.2 L713.0,371.8 L711.6,386.9 L699.0,390.0 L699.2,386.0 L697.1,378.7 L695.0,371.5 L691.4,364.3 L687.8,357.1 L682.0,351.5 L676.2,346.1 L671.2,340.6 L666.1,335.1 L663.7,329.6 L671.8,320.4 L679.4,311.4 L689.8,306.2 L700.0,301.3 L710.0,296.4 Z"><title>Ragusa</title></path>
    <path id="croatia" class="province" data-start-owner="hungary" d="M566.7,67.8 L574.7,78.6 L581.8,89.7 L589.5,101.1 L598.0,112.3 L607.0,123.3 L616.3,134.2 L625.7,145.0 L627.2,159.7 L628.2,174.6 L628.7,189.7 L628.9,204.9 L629.2,220.1 L616.1,225.0 L603.1,229.5 L590.1,233.6 L577.2,237.2 L564.4,240.6 L562.1,239.0 L549.0,234.6 L540.8,242.0 L538.0,248.0 L536.2,252.1 L533.5,249.5 L527.2,243.4 L521.0,237.5 L513.3,236.9 L516.8,223.1 L520.8,209.3 L525.1,195.6 L529.4,182.0 L533.4,168.6 L537.1,155.4 L540.4,142.4 L543.6,129.5 L547.0,116.8 L550.9,104.1 L555.7,91.7 L561.7,80.0 Z"><title>Croatia</title></path>
    <path id="buda" class="province" data-start-owner="hungary" d="M565.0,60.0 L579.6,60.0 L594.2,60.0 L608.7,60.0 L623.3,60.0 L637.9,60.0 L652.5,60.0 L667.1,60.0 L681.7,60.0 L696.3,60.0 L710.9,60.0 L725.4,60.0 L740.0,60.0 L754.6,60.0 L769.2,60.0 L783.8,60.0 L781.4,74.8 L777.7,89.9 L774.0,104.4 L771.3,118.6 L769.3,132.8 L767.7,147.2 L765.9,161.6 L767.1,171.0 L759.4,178.9 L746.4,176.5 L733.3,173.3 L720.2,169.6 L706.9,165.4 L693.5,161.3 L680.1,157.3 L666.6,153.8 L654.8,166.8 L640.2,179.1 L628.7,189.7 L628.2,174.6 L627.2,159.7 L625.7,145.0 L616.3,134.2 L607.0,123.3 L598.0,112.3 L589.5,101.1 L581.8,89.7 L574.7,78.6 L566.7,67.8 Z"><title>Buda</title></path>
    <path id="belgrade" class="province" data-start-owner="hungary" d="M628.7,189.7 L640.2,179.1 L654.8,166.8 L666.6,153.8 L680.1,157.3 L693.5,161.3 L706.9,165.4 L720.2,169.6 L733.3,173.3 L746.4,176.5 L759.4,178.9 L767.1,171.0 L760.3,181.5 L751.9,189.9 L744.2,200.7 L736.4,211.3 L728.7,221.7 L721.1,232.0 L713.9,242.1 L699.0,238.8 L684.0,235.6 L668.9,232.9 L654.1,220.0 L644.0,202.2 Z"><title>Belgrade</title></path>
    <path id="transylvania" class="province" data-start-owner="hungary" d="M783.8,60.0 L798.4,60.0 L813.0,60.0 L827.7,60.0 L842.3,60.0 L856.9,60.0 L871.6,60.0 L886.2,60.0 L900.8,60.0 L915.5,60.0 L917.0,74.6 L916.8,88.9 L917.2,103.0 L919.1,117.1 L921.5,131.4 L924.3,145.7 L914.0,155.1 L903.7,164.4 L893.1,173.5 L882.5,182.4 L871.7,191.2 L860.8,200.1 L850.1,209.1 L839.5,218.5 L829.1,210.6 L818.8,203.3 L808.6,196.4 L798.4,189.9 L788.1,183.6 L777.7,177.4 L767.1,171.0 L765.9,161.6 L767.7,147.2 L769.3,132.8 L771.3,118.6 L774.0,104.4 L777.7,89.9 L781.4,74.8 Z"><title>Transylvania</title></path>
    <path id="bithynia" class="province" data-start-owner="ottoman" d="M1046.6,400.1 L1053.5,404.0 L1060.5,407.8 L1068.6,403.9 L1076.7,399.7 L1083.1,392.7 L1089.5,385.7 L1084.4,378.6 L1079.3,371.5 L1067.0,367.6 L1054.6,363.2 L1061.5,359.1 L1068.3,354.8 L1074.7,349.7 L1081.0,344.5 L1090.2,339.6 L1099.2,334.4 L1108.6,330.3 L1117.9,326.3 L1127.0,321.9 L1135.9,317.7 L1126.5,331.5 L1121.5,343.5 L1116.0,357.5 L1111.5,372.0 L1108.0,386.5 L1105.5,400.5 L1100.5,410.5 L1092.5,418.0 L1080.0,424.0 L1068.0,421.5 L1056.5,417.0 L1049.5,409.0 Z"><title>Bithynia</title></path>
    <path id="bursa" class="province" data-start-owner="ottoman" d="M1046.6,400.1 L1049.5,409.0 L1056.5,417.0 L1068.0,421.5 L1080.0,424.0 L1086.5,433.0 L1094.0,441.5 L1101.5,449.6 L1115.3,444.4 L1129.1,439.6 L1142.8,435.6 L1156.5,432.2 L1163.8,444.6 L1170.9,457.2 L1165.0,466.0 L1158.5,475.5 L1150.5,485.0 L1141.0,494.0 L1130.7,501.9 L1119.5,500.0 L1108.5,500.5 L1097.0,499.5 L1086.5,497.6 L1082.4,485.0 L1078.1,472.4 L1073.5,459.8 L1060.4,454.5 L1047.1,448.4 L1033.7,441.8 L1020.3,434.6 L1006.8,427.2 L1008.1,424.7 L999.7,414.9 L1010.8,409.7 L1022.1,404.4 L1034.7,404.2 Z"><title>Bursa</title></path>
    <path id="nicaea" class="province" data-start-owner="ottoman" d="M1135.9,317.7 L1136.5,331.0 L1139.0,345.0 L1142.5,359.0 L1146.5,372.5 L1151.5,385.5 L1158.0,392.0 L1160.5,398.5 L1163.9,408.7 L1160.1,420.4 L1156.5,432.2 L1142.8,435.6 L1129.1,439.6 L1115.3,444.4 L1101.5,449.6 L1094.0,441.5 L1086.5,433.0 L1080.0,424.0 L1092.5,418.0 L1100.5,410.5 L1105.5,400.5 L1108.0,386.5 L1111.5,372.0 L1116.0,357.5 L1121.5,343.5 L1126.5,331.5 Z"><title>Nicaea</title></path>
    <path id="ankara" class="province" data-start-owner="minor" d="M1135.9,317.7 L1141.1,328.8 L1145.7,340.0 L1150.0,351.2 L1154.1,362.6 L1158.4,374.0 L1163.0,385.5 L1168.2,397.2 L1181.2,396.1 L1194.2,395.0 L1207.2,393.6 L1220.3,391.8 L1233.5,389.7 L1246.7,387.4 L1260.0,385.4 L1266.0,394.5 L1274.0,403.0 L1284.5,410.5 L1296.5,415.5 L1310.0,418.0 L1324.0,419.5 L1338.0,420.5 L1352.0,421.5 L1366.0,421.8 L1379.0,421.5 L1391.0,421.6 L1393.6,435.6 L1396.3,449.7 L1382.0,455.5 L1367.5,460.0 L1353.0,463.5 L1338.5,466.5 L1324.0,469.5 L1310.0,473.0 L1296.5,477.0 L1283.5,480.5 L1272.5,482.0 L1262.2,484.2 L1249.0,489.1 L1235.9,494.1 L1222.8,499.1 L1209.8,503.8 L1196.9,508.1 L1191.5,519.8 L1186.5,531.4 L1172.5,524.0 L1158.5,516.5 L1144.5,509.5 L1130.7,501.9 L1141.0,494.0 L1150.5,485.0 L1158.5,475.5 L1165.0,466.0 L1170.9,457.2 L1163.8,444.6 L1156.5,432.2 L1160.1,420.4 L1163.9,408.7 L1160.5,398.5 L1158.0,392.0 L1151.5,385.5 L1146.5,372.5 L1142.5,359.0 L1139.0,345.0 L1136.5,331.0 Z"><title>Ankara</title></path>
    <path id="konya" class="province" data-start-owner="minor" d="M1130.7,501.9 L1144.5,509.5 L1158.5,516.5 L1172.5,524.0 L1186.5,531.4 L1191.5,519.8 L1196.9,508.1 L1209.8,503.8 L1222.8,499.1 L1235.9,494.1 L1249.0,489.1 L1262.2,484.2 L1272.5,482.0 L1283.5,480.5 L1296.5,477.0 L1310.0,473.0 L1324.0,469.5 L1338.5,466.5 L1353.0,463.5 L1367.5,460.0 L1382.0,455.5 L1396.3,449.7 L1398.7,463.9 L1400.6,478.3 L1402.1,492.7 L1403.6,507.2 L1405.5,521.6 L1407.9,536.0 L1396.1,539.4 L1384.2,542.6 L1372.4,545.3 L1360.5,547.5 L1360.5,547.6 L1363.5,561.2 L1366.7,574.6 L1370.0,588.0 L1372.8,601.2 L1376.4,614.6 L1379.1,627.9 L1381.0,641.1 L1382.3,654.3 L1372.2,654.3 L1362.0,654.0 L1351.9,652.9 L1341.7,651.5 L1331.2,652.1 L1320.8,652.5 L1310.8,653.4 L1300.8,654.5 L1300.9,640.6 L1300.6,626.7 L1299.5,612.8 L1297.5,598.8 L1284.0,594.8 L1270.6,591.3 L1257.2,588.3 L1243.8,585.6 L1230.4,582.8 L1217.0,579.7 L1203.7,576.3 L1190.4,572.5 L1177.1,568.5 L1174.3,565.6 L1162.4,566.6 L1150.5,568.0 L1138.6,569.9 L1140.0,573.5 L1140.5,586.0 L1139.5,599.0 L1138.0,612.0 L1136.5,624.5 L1134.5,637.0 L1132.5,649.0 L1130.0,661.0 L1126.5,672.5 L1121.9,682.7 L1112.5,672.0 L1107.5,664.0 L1104.0,652.5 L1103.5,640.0 L1105.5,627.0 L1109.0,614.0 L1113.5,601.0 L1118.0,588.0 L1121.5,575.0 L1124.0,562.0 L1125.5,549.0 L1126.0,536.0 L1126.5,523.0 L1128.0,511.5 Z"><title>Konya</title></path>
    <path id="kastamonu" class="province" data-start-owner="minor" d="M1168.2,397.2 L1163.0,385.5 L1158.4,374.0 L1154.1,362.6 L1150.0,351.2 L1145.7,340.0 L1141.1,328.8 L1135.9,317.7 L1137.2,317.1 L1147.3,316.4 L1157.5,315.9 L1168.0,312.8 L1179.1,313.1 L1190.0,312.5 L1200.4,309.8 L1209.7,306.1 L1218.9,302.2 L1229.1,301.1 L1239.3,299.8 L1248.0,292.8 L1253.6,283.1 L1264.4,293.9 L1267.4,306.9 L1269.6,319.9 L1271.0,332.7 L1271.7,345.5 L1272.1,358.2 L1272.6,370.9 L1273.4,383.7 L1282.1,393.0 L1291.1,402.6 L1305.0,404.0 L1318.9,405.7 L1332.9,407.3 L1346.8,408.6 L1360.8,409.1 L1374.8,408.8 L1388.7,407.7 L1391.0,421.6 L1379.0,421.5 L1366.0,421.8 L1352.0,421.5 L1338.0,420.5 L1324.0,419.5 L1310.0,418.0 L1296.5,415.5 L1284.5,410.5 L1274.0,403.0 L1266.0,394.5 L1260.0,385.4 L1246.7,387.4 L1233.5,389.7 L1220.3,391.8 L1207.2,393.6 L1194.2,395.0 L1181.2,396.1 Z"><title>Kastamonu</title></path>
    <path id="sinope" class="province" data-start-owner="minor" d="M1273.4,383.7 L1272.6,370.9 L1272.1,358.2 L1271.7,345.5 L1271.0,332.7 L1269.6,319.9 L1267.4,306.9 L1264.4,293.9 L1269.2,298.9 L1278.0,297.1 L1286.8,295.6 L1295.9,295.5 L1305.0,295.6 L1317.0,293.1 L1330.0,294.8 L1342.4,293.4 L1355.5,296.0 L1368.4,295.3 L1380.3,290.8 L1392.8,291.4 L1394.9,305.7 L1396.2,319.8 L1396.5,333.9 L1395.9,347.8 L1394.7,361.6 L1393.5,375.5 L1392.8,389.3 L1392.8,403.2 L1388.7,407.7 L1374.8,408.8 L1360.8,409.1 L1346.8,408.6 L1332.9,407.3 L1318.9,405.7 L1305.0,404.0 L1291.1,402.6 L1282.1,393.0 Z"><title>Sinope</title></path>
    <path id="smyrna" class="province" data-start-owner="minor" d="M1006.8,427.2 L1020.3,434.6 L1033.7,441.8 L1047.1,448.4 L1060.4,454.5 L1073.5,459.8 L1078.1,472.4 L1082.4,485.0 L1086.5,497.6 L1097.0,499.5 L1108.5,500.5 L1119.5,500.0 L1130.7,501.9 L1128.0,511.5 L1126.5,523.0 L1126.0,536.0 L1125.5,549.0 L1124.0,562.0 L1121.5,575.0 L1118.0,588.0 L1113.5,601.0 L1109.0,614.0 L1105.5,627.0 L1103.5,640.0 L1104.0,652.5 L1107.5,664.0 L1112.5,672.0 L1121.9,682.7 L1116.1,679.7 L1109.7,676.5 L1106.1,678.3 L1097.7,682.7 L1089.3,687.0 L1085.1,680.9 L1081.1,674.8 L1075.9,669.8 L1070.6,664.7 L1060.8,667.7 L1050.9,670.2 L1045.5,658.1 L1044.1,644.6 L1038.2,632.3 L1038.1,631.2 L1036.0,618.6 L1039.5,609.2 L1042.5,599.6 L1032.7,590.4 L1022.4,581.2 L1027.7,572.2 L1028.8,561.0 L1016.7,551.2 L1002.9,545.4 L1004.1,543.0 L1008.5,535.1 L1013.1,527.1 L1007.7,514.3 L1003.3,501.3 L1004.3,493.2 L1005.4,485.1 L1009.5,478.3 L1013.5,471.5 L1009.6,464.2 L1005.7,456.9 L1002.8,449.3 L999.7,441.7 L1003.3,434.5 Z"><title>Smyrna</title></path>
    <path id="antalya" class="province" data-start-owner="minor" d="M1121.9,682.7 L1126.5,672.5 L1130.0,661.0 L1132.5,649.0 L1134.5,637.0 L1136.5,624.5 L1138.0,612.0 L1139.5,599.0 L1140.5,586.0 L1140.0,573.5 L1138.6,569.9 L1150.5,568.0 L1162.4,566.6 L1174.3,565.6 L1177.1,568.5 L1190.4,572.5 L1203.7,576.3 L1217.0,579.7 L1230.4,582.8 L1243.8,585.6 L1257.2,588.3 L1270.6,591.3 L1284.0,594.8 L1297.5,598.8 L1299.5,612.8 L1300.6,626.7 L1300.9,640.6 L1300.8,654.5 L1299.9,654.6 L1292.0,651.6 L1284.1,648.8 L1276.6,645.5 L1269.1,642.4 L1261.5,646.0 L1253.8,649.8 L1246.5,654.2 L1239.1,658.7 L1234.4,650.2 L1229.6,641.6 L1222.6,648.9 L1215.6,656.1 L1209.2,661.5 L1202.9,666.9 L1200.5,668.9 L1192.6,666.2 L1184.7,663.3 L1176.1,663.9 L1167.6,664.4 L1164.7,673.1 L1162.2,681.9 L1148.8,688.4 L1134.4,691.9 L1128.4,687.4 L1122.5,683.0 Z"><title>Antalya</title></path>
    <path id="trebizond" class="province" data-start-owner="minor" d="M1392.8,403.2 L1392.8,389.3 L1393.5,375.5 L1394.7,361.6 L1395.9,347.8 L1396.5,333.9 L1396.2,319.8 L1394.9,305.7 L1392.8,291.4 L1393.3,291.4 L1406.3,291.8 L1414.0,291.7 L1421.7,291.7 L1429.1,289.7 L1436.5,287.8 L1444.3,288.2 L1452.0,288.7 L1459.1,286.5 L1466.2,284.3 L1475.9,284.2 L1485.6,284.1 L1494.9,282.7 L1504.2,281.1 L1513.2,280.1 L1521.8,278.9 L1530.6,280.4 L1540.0,282.0 L1540.0,296.2 L1540.0,310.4 L1540.0,324.7 L1540.0,338.9 L1540.0,353.1 L1540.0,367.3 L1540.0,381.5 L1525.0,383.0 L1509.9,384.2 L1495.2,385.7 L1480.8,387.1 L1466.3,388.6 L1451.7,390.5 L1437.0,393.0 L1422.3,396.1 L1407.6,399.6 Z"><title>Trebizond</title></path>
    <path id="aleppo" class="province" data-start-owner="minor" d="M1382.3,654.3 L1381.0,641.1 L1379.1,627.9 L1376.4,614.6 L1372.8,601.2 L1370.0,588.0 L1366.7,574.6 L1363.5,561.2 L1360.5,547.6 L1360.5,547.5 L1372.4,545.3 L1384.2,542.6 L1396.1,539.4 L1407.9,536.0 L1419.6,543.5 L1431.4,551.1 L1443.4,559.0 L1455.5,567.3 L1467.5,575.8 L1479.3,584.5 L1490.9,593.4 L1502.2,602.1 L1512.5,610.7 L1521.2,619.1 L1529.9,627.7 L1540.0,636.5 L1540.0,649.2 L1540.0,661.9 L1540.0,674.6 L1540.0,687.3 L1540.0,700.0 L1540.0,713.8 L1540.0,727.6 L1540.0,741.5 L1540.0,755.3 L1540.0,769.1 L1540.0,782.9 L1540.0,796.7 L1540.0,810.5 L1540.0,824.4 L1540.0,838.2 L1540.0,852.0 L1526.1,853.2 L1512.7,854.7 L1499.3,855.9 L1485.7,856.7 L1472.0,857.4 L1458.5,855.4 L1444.9,853.7 L1431.2,852.7 L1440.1,843.0 L1444.8,830.4 L1453.5,820.5 L1457.2,806.4 L1465.6,794.2 L1469.0,780.0 L1473.3,767.6 L1472.4,754.2 L1477.7,742.0 L1478.5,729.0 L1477.5,716.5 L1481.4,704.3 L1479.4,691.8 L1481.3,679.5 L1475.5,665.7 L1472.9,650.8 L1465.7,637.5 L1462.0,623.0 L1449.5,619.9 L1436.5,620.1 L1424.3,615.4 L1411.5,614.5 L1404.9,625.0 L1396.0,633.7 L1390.6,645.1 Z"><title>Aleppo</title></path>
    <path id="antioch" class="province" data-start-owner="minor" d="M1382.3,654.3 L1390.6,645.1 L1396.0,633.7 L1404.9,625.0 L1411.5,614.5 L1424.3,615.4 L1436.5,620.1 L1449.5,619.9 L1462.0,623.0 L1465.7,637.5 L1472.9,650.8 L1475.5,665.7 L1481.3,679.5 L1477.0,673.6 L1472.8,667.8 L1471.5,660.7 L1470.2,653.7 L1459.6,661.9 L1448.4,669.4 L1435.6,664.4 L1421.0,664.7 L1412.2,660.6 L1403.3,656.5 L1392.8,655.6 Z"><title>Antioch</title></path>
    <path id="cairo" class="province" data-start-owner="minor" d="M1208.2,895.1 L1222.4,897.3 L1236.8,896.0 L1251.5,893.2 L1266.0,890.8 L1280.6,887.4 L1295.2,884.3 L1309.7,881.7 L1323.9,877.8 L1338.0,874.4 L1352.2,871.9 L1366.3,869.0 L1380.3,867.2 L1394.2,865.8 L1408.0,863.9 L1420.3,859.6 L1431.2,852.7 L1444.9,853.7 L1458.5,855.4 L1472.0,857.4 L1485.7,856.7 L1499.3,855.9 L1512.7,854.7 L1526.1,853.2 L1540.0,852.0 L1540.0,866.7 L1540.0,881.3 L1540.0,896.0 L1540.0,910.7 L1540.0,925.3 L1540.0,940.0 L1525.4,940.0 L1510.8,940.0 L1496.2,940.0 L1481.6,940.0 L1467.0,940.0 L1452.3,940.0 L1437.7,940.0 L1423.1,940.0 L1408.5,940.0 L1393.9,940.0 L1379.3,940.0 L1364.7,940.0 L1350.1,940.0 L1335.5,940.0 L1320.9,940.0 L1306.3,940.0 L1291.7,940.0 L1277.0,940.0 L1262.4,940.0 L1247.8,940.0 L1233.2,940.0 L1218.6,940.0 L1204.0,940.0 L1205.0,924.8 L1207.5,909.6 Z"><title>Cairo</title></path>
    <path id="alexandria" class="province" data-start-owner="minor" d="M1205.3,866.3 L1213.3,868.1 L1224.1,864.8 L1234.3,860.0 L1246.2,860.1 L1258.1,860.9 L1271.3,858.9 L1282.3,852.7 L1295.7,853.0 L1309.1,853.5 L1315.8,849.6 L1322.5,845.8 L1328.9,841.3 L1335.4,836.8 L1343.5,836.5 L1351.6,836.0 L1358.5,832.2 L1365.5,828.2 L1374.1,829.1 L1382.8,829.8 L1390.7,833.0 L1398.7,836.0 L1407.0,839.7 L1415.3,843.4 L1423.2,848.0 L1431.2,852.7 L1420.3,859.6 L1408.0,863.9 L1394.2,865.8 L1380.3,867.2 L1366.3,869.0 L1352.2,871.9 L1338.0,874.4 L1323.9,877.8 L1309.7,881.7 L1295.2,884.3 L1280.6,887.4 L1266.0,890.8 L1251.5,893.2 L1236.8,896.0 L1222.4,897.3 L1208.2,895.1 L1207.1,880.7 Z"><title>Alexandria</title></path>
    <path id="cyprus" class="province" data-start-owner="minor" d="M1257.2,728.6 L1251.9,720.1 L1246.6,711.7 L1256.9,709.8 L1267.2,708.1 L1276.8,704.4 L1286.5,701.0 L1296.5,699.8 L1306.5,698.8 L1316.8,700.1 L1327.1,701.4 L1335.7,697.7 L1344.5,693.8 L1354.3,693.5 L1364.1,692.9 L1357.0,699.5 L1349.9,705.9 L1344.2,713.3 L1338.7,720.6 L1328.0,721.6 L1317.4,722.4 L1307.4,725.1 L1297.4,728.0 L1287.2,726.0 L1277.0,724.3 L1267.1,726.3 Z"><title>Cyprus</title></path>
    <path id="rhodes" class="province" data-start-owner="minor" d="M1087.0,714.7 L1088.4,705.6 L1090.1,696.4 L1103.2,690.3 L1113.1,685.7 L1116.3,684.3 L1118.9,688.7 L1121.8,693.4 L1128.4,702.0 L1119.4,712.3 L1108.0,720.0 L1097.3,718.0 Z"><title>Rhodes</title></path>
    <path id="chios" class="province" data-start-owner="genoa" d="M985.5,515.0 L990.6,511.9 L997.5,510.0 L999.5,515.3 L1002.5,520.0 L997.7,523.6 L993.5,528.0 L988.2,526.7 L983.5,524.0 L985.0,519.6 Z"><title>Chios</title></path>
    <path id="lesbos" class="province" data-start-owner="genoa" d="M972.0,466.0 L977.3,463.2 L983.4,463.5 L989.0,461.0 L993.4,465.9 L996.0,472.0 L990.5,475.9 L986.0,481.0 L980.1,480.4 L976.1,477.6 L972.0,477.0 L971.3,471.5 Z"><title>Lesbos</title></path>
    <path id="lemnos" class="province" data-start-owner="byzantium" d="M936.0,448.0 L940.5,445.2 L945.8,445.3 L950.0,443.0 L954.9,446.7 L958.0,452.0 L952.7,456.0 L949.0,461.0 L942.8,460.5 L937.0,458.0 L937.1,453.1 Z"><title>Lemnos</title></path>
    <path id="negroponte" class="province" data-start-owner="venice" d="M859.3,509.0 L865.4,503.3 L871.6,497.6 L881.4,504.1 L889.1,513.3 L894.4,519.7 L899.8,526.0 L903.8,533.3 L908.0,540.6 L919.1,550.9 L928.6,562.8 L921.4,569.5 L914.2,575.9 L904.5,564.0 L892.4,554.2 L882.9,542.3 L873.5,530.6 L868.2,518.5 Z"><title>Negroponte</title></path>
    <path id="naxos" class="province" data-start-owner="minor" d="M918.0,636.0 L922.6,633.1 L928.2,632.7 L933.0,630.0 L938.0,634.8 L941.0,641.0 L936.6,644.6 L934.7,649.3 L931.0,652.0 L924.3,648.7 L917.0,647.0 L916.7,641.4 Z"><title>Naxos</title></path>
    <path id="crete" class="province" data-start-owner="venice" d="M854.6,764.1 L857.8,750.9 L869.4,748.8 L879.7,743.2 L891.6,743.3 L903.6,743.6 L914.8,745.1 L925.6,748.6 L936.9,747.6 L948.2,746.3 L960.9,748.5 L973.7,747.8 L986.7,748.2 L999.3,752.2 L1009.3,759.6 L1020.6,764.7 L1010.6,765.4 L1000.7,766.1 L992.0,770.8 L983.3,775.7 L970.4,779.1 L957.3,777.8 L944.3,776.5 L932.5,771.3 L920.9,770.8 L909.8,767.9 L898.4,769.3 L887.2,771.6 L879.3,768.1 L871.4,764.5 L863.0,764.2 Z"><title>Crete</title></path>
    <path id="corfu" class="province" data-start-owner="venice" d="M676.0,461.5 L688.0,455.0 L697.2,466.9 L695.1,475.4 L692.8,484.0 L680.6,486.3 L671.9,473.6 Z"><title>Corfu</title></path>
    <path id="kaffa" class="province" data-start-owner="genoa" d="M1164.0,60.0 L1179.0,60.0 L1194.0,60.0 L1209.0,60.0 L1224.0,60.0 L1239.0,60.0 L1254.0,60.0 L1269.0,60.0 L1284.0,60.0 L1284.7,70.8 L1286.3,81.0 L1287.5,91.2 L1285.9,101.9 L1295.5,111.1 L1302.0,122.9 L1309.2,127.7 L1316.4,132.7 L1323.8,137.3 L1331.3,142.0 L1325.2,146.9 L1319.1,151.9 L1312.5,156.2 L1305.8,160.6 L1298.2,161.6 L1290.6,162.7 L1283.1,164.4 L1275.7,166.4 L1270.8,173.0 L1265.8,179.8 L1258.6,184.2 L1251.4,188.8 L1242.5,191.6 L1233.7,194.4 L1224.6,195.3 L1215.6,196.1 L1207.0,191.6 L1198.5,187.0 L1189.6,182.9 L1180.7,178.8 L1171.9,173.6 L1163.1,168.5 L1156.1,160.9 L1149.0,153.5 L1145.4,143.9 L1141.8,134.4 L1135.7,126.4 L1129.7,118.5 L1133.5,110.0 L1137.5,101.5 L1142.0,93.3 L1146.9,85.6 L1150.5,78.8 L1153.6,72.0 L1158.8,66.1 Z"><title>Kaffa</title></path>
  </g>

  <!-- off-map armenia/syria interior (board-deco-armenia) -->
  <path id="board-deco-armenia" d="M1540.0,381.5 L1392.8,403.2 L1407.9,536.0 L1419.6,543.5 L1431.4,551.1 L1443.4,559.0 L1455.5,567.3 L1467.5,575.8 L1479.3,584.5 L1490.9,593.4 L1502.2,602.1 L1512.5,610.7 L1521.2,619.1 L1529.9,627.7 L1540.0,636.5 Z" fill="#E2D3B3" fill-opacity=".55" stroke="none"/>

  <!-- decorative non-province land (no game ids/adjacency) -->
  <g id="board-deco-land" pointer-events="none">
    <path id="board-deco-alps" fill="#E2D3B3" fill-opacity=".9" stroke="#2B2118" stroke-width="1.2" stroke-linejoin="round" d="M540.0,60.0 L565.0,60.0 L566.7,67.8 L561.7,80.0 L555.7,91.7 L550.9,104.1 L547.0,116.8 L543.6,129.5 L540.4,142.4 L537.1,155.4 L533.4,168.6 L529.4,182.0 L525.1,195.6 L520.8,209.3 L516.8,223.1 L513.3,236.9 L513.8,223.1 L517.8,209.3 L522.1,195.6 L526.4,182.0 L530.4,168.6 L534.1,155.4 L537.4,142.4 L540.6,129.5 L544.0,116.8 L547.9,104.1 L552.7,91.7 L558.7,80.0 Z"/>
    <path id="board-deco-sardinia" fill="#E2D3B3" fill-opacity=".85" stroke="#2B2118" stroke-width="1" stroke-opacity=".8" stroke-linejoin="round" d="M276.0,532.0 L277.5,521.6 L279.2,511.3 L286.8,510.0 L294.4,508.6 L302.1,508.1 L309.8,507.4 L312.7,516.7 L315.8,526.0 L320.5,534.5 L325.5,543.0 L326.5,554.6 L326.1,566.0 L324.9,577.2 L324.9,588.5 L328.0,595.9 L330.9,603.4 L334.3,610.5 L337.3,617.6 L328.7,619.9 L320.0,622.1 L312.6,627.4 L305.2,632.5 L300.9,623.9 L296.2,615.2 L288.5,608.5 L280.5,601.5 L278.2,589.1 L274.6,576.5 L273.9,564.0 L270.7,551.2 L273.2,541.6 Z"/>
    <path id="board-deco-corsica" fill="#E2D3B3" fill-opacity=".85" stroke="#2B2118" stroke-width="1" stroke-opacity=".8" stroke-linejoin="round" d="M272.3,415.3 L275.9,404.8 L288.2,404.2 L299.4,399.4 L301.0,407.5 L302.7,415.7 L306.3,423.4 L310.0,431.1 L309.5,441.2 L308.9,451.3 L307.0,461.4 L305.0,471.4 L293.9,478.3 L284.2,486.9 L281.5,477.2 L278.6,467.5 L274.5,458.2 L270.2,448.8 L273.9,438.4 L273.4,426.8 Z"/>
    <path id="board-deco-armenia-trebizond" fill="#E2D3B3" fill-opacity=".5" stroke="none" d="M1392.8,403.2 L1407.6,399.6 L1422.3,396.1 L1437.0,393.0 L1451.7,390.5 L1466.3,388.6 L1480.8,387.1 L1495.2,385.7 L1509.9,384.2 L1525.0,383.0 L1540.0,381.5 Z"/>
    <path id="board-deco-armenia-east" fill="#E2D3B3" fill-opacity=".5" stroke="none" d="M1392.8,403.2 L1388.7,407.7 L1391.0,421.6 L1393.6,435.6 L1396.3,449.7 L1398.7,463.9 L1400.6,478.3 L1402.1,492.7 L1403.6,507.2 L1405.5,521.6 L1407.9,536.0 Z"/>
    <path id="board-deco-steppe-kaffa" fill="#E2D3B3" fill-opacity=".5" stroke="none" d="M1284.0,60.0 L1269.0,60.0 L1254.0,60.0 L1239.0,60.0 L1224.0,60.0 L1209.0,60.0 L1194.0,60.0 L1179.0,60.0 L1164.0,60.0 Z"/>
    <path id="board-deco-tripolitania" fill="#E2D3B3" fill-opacity=".85" stroke="#2B2118" stroke-width="1" stroke-opacity=".8" stroke-linejoin="round" d="M590.9,940.0 L605.6,940.0 L620.3,940.0 L635.0,940.0 L649.7,940.0 L664.3,940.0 L679.0,940.0 L693.7,940.0 L708.4,940.0 L723.1,940.0 L737.8,940.0 L752.5,940.0 L767.2,940.0 L781.9,940.0 L796.6,940.0 L811.3,940.0 L826.0,940.0 L840.7,940.0 L855.4,940.0 L870.0,940.0 L884.7,940.0 L899.4,940.0 L899.6,927.0 L901.0,914.0 L901.9,901.4 L901.0,889.0 L899.3,876.6 L887.2,877.1 L873.6,875.6 L860.1,873.4 L849.5,868.1 L839.4,861.8 L829.4,855.7 L819.5,849.7 L812.1,847.6 L804.7,845.7 L797.1,845.7 L789.5,845.7 L782.0,845.4 L774.5,845.1 L766.9,845.0 L759.3,844.8 L751.9,842.7 L744.4,840.3 L736.8,840.8 L729.2,841.1 L721.6,839.7 L714.0,838.3 L706.5,835.8 L698.9,833.3 L688.0,833.9 L676.9,834.6 L666.5,838.2 L654.9,837.6 L646.1,840.8 L637.3,844.1 L628.4,847.2 L619.5,850.2 L610.0,850.0 L600.5,849.4 L596.0,851.0 L596.9,863.8 L597.8,876.5 L598.2,889.1 L598.0,901.7 L595.7,914.2 L592.5,927.0 Z"/>
    <path id="board-deco-cyrenaica" fill="#E2D3B3" fill-opacity=".85" stroke="#2B2118" stroke-width="1" stroke-opacity=".8" stroke-linejoin="round" d="M899.4,940.0 L913.9,940.0 L928.4,940.0 L942.9,940.0 L957.4,940.0 L971.9,940.0 L986.5,940.0 L1001.0,940.0 L1015.5,940.0 L1030.0,940.0 L1044.5,940.0 L1059.0,940.0 L1073.5,940.0 L1088.0,940.0 L1102.5,940.0 L1117.0,940.0 L1131.5,940.0 L1146.0,940.0 L1160.5,940.0 L1175.0,940.0 L1189.5,940.0 L1204.0,940.0 L1205.0,924.8 L1207.5,909.6 L1208.2,895.1 L1207.1,880.7 L1205.3,866.3 L1200.3,865.1 L1187.4,864.8 L1174.5,862.7 L1161.6,860.1 L1149.4,851.4 L1137.1,843.5 L1123.3,840.8 L1109.4,838.8 L1095.9,839.7 L1082.5,837.8 L1069.0,835.8 L1056.5,830.0 L1041.8,830.2 L1027.1,830.6 L1013.2,834.6 L998.0,832.1 L985.7,834.4 L974.3,839.0 L964.8,846.4 L957.9,856.2 L946.6,861.8 L934.5,866.0 L924.9,873.9 L914.4,880.5 L900.7,876.5 L899.3,876.6 L901.0,889.0 L901.9,901.4 L901.0,914.0 L899.6,927.0 Z"/>
  </g>

  <!-- the danube: decorative ribbon; R3 stretch severs wallachia|philippopolis -->
  <g id="board-danube" pointer-events="none">
    <path id="board-danube-gap" d="M867.9,249.7 L855.1,244.9 L841.5,242.7 L853.3,249.5 L866.1,254.3 L879.1,259.2 L892.2,264.0 L905.3,268.4 L918.6,272.5 L931.9,276.2 L947.6,280.4 L945.9,277.4 L946.7,275.0 L933.3,271.4 L920.0,267.7 L906.9,263.6 L893.8,259.2 L880.9,254.6 Z" fill="#1F4E79" fill-opacity=".3" stroke="none"/>
    <path id="board-danube-ribbon" d="M700,60 L688,118 L688,206 L764,174.3 L838,226.9 L843.7,246.5 L944.7,277.0 C980,270 1020,240 1048,205" fill="none" stroke="#1F4E79" stroke-opacity=".32" stroke-width="4" stroke-linejoin="round" stroke-linecap="round"/>
    <!-- river-port anchors (R): buda, belgrade -->
    <g id="board-riverport-buda" stroke="#1F4E79" stroke-width="1.2" fill="none" stroke-opacity=".8"><circle cx="675" cy="120" r="2"/><path d="M675,122 L675,129 M671.5,126 a3.5,3.5 0 0 0 7,0"/></g>
    <g id="board-riverport-belgrade" stroke="#1F4E79" stroke-width="1.2" fill="none" stroke-opacity=".8"><circle cx="678" cy="210" r="2"/><path d="M678,212 L678,219 M674.5,216 a3.5,3.5 0 0 0 7,0"/></g>
  </g>

  <!-- strait markers (army crossings + sea gates) -->
  <g id="board-straits" pointer-events="none">
    <g id="strait-messina">
      <line x1="562.5" y1="664.8" x2="527.5" y2="703.8" stroke="#2B2118" stroke-width="1" stroke-opacity=".55" stroke-dasharray="2.5 3"/>
      <path d="M548.1,676.3 L546.3,682.8 L552.6,680.3 M541.4,683.8 L539.7,690.3 L545.9,687.8" fill="none" stroke="#C9A227" stroke-width="1.8" stroke-linejoin="round"/>
    </g>
    <g id="strait-bosphorus">
      <line x1="1036.8" y1="366.4" x2="1054.6" y2="363.2" stroke="#2B2118" stroke-width="1" stroke-opacity=".55" stroke-dasharray="2.5 3"/>
      <path d="M1038.4,369.2 L1043.7,365.2 L1037.3,363.3 M1048.2,367.4 L1053.6,363.4 L1047.1,361.5" fill="none" stroke="#C9A227" stroke-width="1.8" stroke-linejoin="round"/>
    </g>
    <g id="strait-golden-horn">
      <path d="M1011.0,348.0 L1014.0,344.0 L1017.0,348.0" fill="none" stroke="#C9A227" stroke-width="1.4" stroke-linejoin="round"/>
    </g>
    <g id="strait-dardanelles">
      <line x1="975.1" y1="406.2" x2="999.7" y2="414.9" stroke="#2B2118" stroke-width="1" stroke-opacity=".55" stroke-dasharray="2.5 3"/>
      <path d="M978.9,410.7 L985.5,409.9 L980.9,405.1 M988.3,414.0 L994.9,413.2 L990.3,408.4" fill="none" stroke="#C9A227" stroke-width="1.8" stroke-linejoin="round"/>
    </g>
  </g>

  <!-- province names (EB Garamond small caps) -->
  <g id="board-province-names" pointer-events="none">
    <text class="prov-label" x="352.7" y="213.9" font-size="11" text-anchor="middle">Milan</text>
    <text class="prov-label" x="483.7" y="726.8" font-size="10" text-anchor="middle">Sicily</text>
    <text class="prov-label" x="585.1" y="188.1" font-size="9.5" text-anchor="middle">Croatia</text>
    <text class="prov-label" x="845.8" y="143.2" font-size="10.5" text-anchor="middle">Transylvania</text>
    <text class="prov-label" x="675.8" y="246.9" font-size="9.5" text-anchor="middle">Bosnia</text>
    <text class="prov-label" x="785.3" y="317.9" font-size="10" text-anchor="middle">Serbia</text>
    <text class="prov-label" x="639.8" y="271.4" font-size="9" text-anchor="middle">Dalmatia</text>
    <text class="prov-label" x="745.2" y="393.5" font-size="9" text-anchor="middle">Albania</text>
    <text class="prov-label" x="998.7" y="377.0" font-size="8" text-anchor="middle">Selymbria</text>
    <text class="prov-label" x="934.8" y="410.9" font-size="8" text-anchor="middle">Gallipoli</text>
    <text class="prov-label" x="912.7" y="313.6" font-size="9.5" text-anchor="middle">Philippopolis</text>
    <text class="prov-label" x="845.6" y="340.1" font-size="10" text-anchor="middle">Sofia</text>
    <text class="prov-label" x="1003.0" y="282.4" font-size="9.5" text-anchor="middle">Varna</text>
    <text class="prov-label" x="972.0" y="178.9" font-size="11" text-anchor="middle">Wallachia</text>
    <text class="prov-label" x="750.4" y="543.6" font-size="9" text-anchor="middle">Epirus</text>
    <text class="prov-label" x="802.4" y="530.9" font-size="9" text-anchor="middle">Thessaly</text>
    <text class="prov-label" x="814.4" y="675.1" font-size="10" text-anchor="middle">Morea</text>
    <text class="prov-label" x="777.7" y="702.2" font-size="8" text-anchor="middle">Modon &amp; Coron</text>
    <text class="prov-label" x="683.7" y="472.2" font-size="7.5" text-anchor="middle">Corfu</text>
    <text class="prov-label" x="898.3" y="545.0" font-size="8" text-anchor="middle">Negroponte</text>
    <text class="prov-label" x="947.1" y="454.6" font-size="7.5" text-anchor="middle">Lemnos</text>
    <text class="prov-label" x="983.1" y="470.8" font-size="7.5" text-anchor="middle">Lesbos</text>
    <text class="prov-label" x="993.1" y="519.5" font-size="7.5" text-anchor="middle">Chios</text>
    <text class="prov-label" x="928.8" y="643.2" font-size="7.5" text-anchor="middle">Naxos</text>
    <text class="prov-label" x="934.7" y="763.9" font-size="10" text-anchor="middle">Crete</text>
    <text class="prov-label" x="1107.8" y="705.8" font-size="8" text-anchor="middle">Rhodes</text>
    <text class="prov-label" x="1090.7" y="389.6" font-size="8.5" text-anchor="middle">Bithynia</text>
    <text class="prov-label" x="1097.5" y="456.1" font-size="9.5" text-anchor="middle">Bursa</text>
    <text class="prov-label" x="1275.0" y="433.0" font-size="11" text-anchor="middle">Ankara</text>
    <text class="prov-label" x="1269.7" y="586.1" font-size="11" text-anchor="middle">Konya</text>
    <text class="prov-label" x="1221.6" y="368.7" font-size="10" text-anchor="middle">Kastamonu</text>
    <text class="prov-label" x="1333.7" y="367.0" font-size="10" text-anchor="middle">Sinope</text>
    <text class="prov-label" x="1065.7" y="586.1" font-size="10" text-anchor="middle">Smyrna</text>
    <text class="prov-label" x="1218.0" y="651.9" font-size="10" text-anchor="middle">Antalya</text>
    <text class="prov-label" x="242.8" y="895.6" font-size="11" text-anchor="middle">Tunis</text>
    <text class="prov-label" x="1526.0" y="701.9" font-size="10" text-anchor="middle">Aleppo</text>
    <text class="prov-label" x="1439.7" y="662.0" font-size="9" text-anchor="middle">Antioch</text>
    <text class="prov-label" x="1299.0" y="712.8" font-size="9" text-anchor="middle">Cyprus</text>
  </g>

  <!-- retired classical names, faint flavor layer -->
  <g id="board-old-names" pointer-events="none">
    <text class="region-flavor" x="390" y="330" text-anchor="middle">Tuscia</text>
    <text class="region-flavor" x="585" y="470" text-anchor="middle">Apulia</text>
    <text class="region-flavor" x="560" y="610" text-anchor="middle">Calabria</text>
    <text class="region-flavor" x="660" y="190" text-anchor="middle">Slavonia</text>
    <text class="region-flavor" x="700" y="345" text-anchor="middle">Zeta</text>
    <text class="region-flavor" x="890" y="300" text-anchor="middle">Moesia</text>
    <text class="region-flavor" x="990" y="120" text-anchor="middle">Moldavia</text>
    <text class="region-flavor" x="940" y="370" text-anchor="middle">Rumelia</text>
    <text class="region-flavor" x="868" y="545" text-anchor="middle">Attica</text>
    <text class="region-flavor" x="1225" y="445" text-anchor="middle">Galatia</text>
    <text class="region-flavor" x="1135" y="495" text-anchor="middle">Phrygia</text>
    <text class="region-flavor" x="1050" y="520" text-anchor="middle">Lydia</text>
    <text class="region-flavor" x="1085" y="635" text-anchor="middle">Caria</text>
    <text class="region-flavor" x="1150" y="655" text-anchor="middle">Lycia</text>
    <text class="region-flavor" x="1245" y="625" text-anchor="middle">Pamphylia</text>
    <text class="region-flavor" x="1350" y="615" text-anchor="middle">Cilicia</text>
    <text class="region-flavor" x="1330" y="485" text-anchor="middle">Cappadocia</text>
    <text class="region-flavor" x="1210" y="355" text-anchor="middle">Paphlagonia</text>
    <text class="region-flavor" x="1330" y="335" text-anchor="middle">Pontus</text>
    <text class="region-flavor" x="1470" y="465" text-anchor="middle">Armenia</text>
    <text class="region-flavor" x="1050" y="890" text-anchor="middle">Cyrenaica</text>
    <text class="region-flavor" x="750" y="900" text-anchor="middle">Tripolitania</text>
  </g>

  <!-- city markers (17, MAP.md spellings) -->
  <g id="board-cities">
    <g id="city-venice" class="city">
      <circle cx="492.7" cy="222.9" r="4.6" fill="none" stroke="#2B2118" stroke-width="1.4"/>
      <circle cx="492.7" cy="222.9" r="2.4" fill="#C9A227" stroke="#2B2118" stroke-width=".8"/>
      <text x="501.7" y="235.9" text-anchor="start">Venice</text>
    </g>
    <g id="city-genoa" class="city">
      <circle cx="317.8" cy="305.7" r="4.6" fill="none" stroke="#2B2118" stroke-width="1.4"/>
      <circle cx="317.8" cy="305.7" r="2.4" fill="#C9A227" stroke="#2B2118" stroke-width=".8"/>
      <text x="325.8" y="298.7" text-anchor="start">Genoa</text>
    </g>
    <g id="city-rome" class="city">
      <circle cx="453.2" cy="428.7" r="4.6" fill="none" stroke="#2B2118" stroke-width="1.4"/>
      <circle cx="453.2" cy="428.7" r="2.4" fill="#C9A227" stroke="#2B2118" stroke-width=".8"/>
      <text x="444.2" y="432.7" text-anchor="end">Roma</text>
    </g>
    <g id="city-naples" class="city">
      <circle cx="521.1" cy="480.6" r="4.6" fill="none" stroke="#2B2118" stroke-width="1.4"/>
      <circle cx="521.1" cy="480.6" r="2.4" fill="#C9A227" stroke="#2B2118" stroke-width=".8"/>
      <text x="530.1" y="474.6" text-anchor="start">Napoli</text>
    </g>
    <g id="city-buda" class="city">
      <circle cx="684.0" cy="116.4" r="4.6" fill="none" stroke="#2B2118" stroke-width="1.4"/>
      <circle cx="684.0" cy="116.4" r="2.4" fill="#C9A227" stroke="#2B2118" stroke-width=".8"/>
      <text x="693.0" y="120.4" text-anchor="start">Buda</text>
    </g>
    <g id="city-belgrade" class="city">
      <circle cx="687.5" cy="206.5" r="4.6" fill="none" stroke="#2B2118" stroke-width="1.4"/>
      <circle cx="687.5" cy="206.5" r="2.4" fill="#C9A227" stroke="#2B2118" stroke-width=".8"/>
      <text x="696.5" y="210.5" text-anchor="start">Belgrade</text>
    </g>
    <g id="city-ragusa" class="city">
      <circle cx="684.0" cy="331.0" r="4.6" fill="none" stroke="#2B2118" stroke-width="1.4"/>
      <circle cx="684.0" cy="331.0" r="2.4" fill="#C9A227" stroke="#2B2118" stroke-width=".8"/>
      <text x="692.0" y="343.0" text-anchor="start">Ragusa</text>
    </g>
    <g id="city-constantinople" class="city">
      <g stroke="#2B2118" stroke-width="1.1">
        <rect x="1012.0" y="358.3" width="22" height="9" fill="#C9A227"/>
        <rect x="1010.0" y="352.3" width="5" height="15" fill="#C9A227"/>
        <rect x="1031.0" y="352.3" width="5" height="15" fill="#C9A227"/>
        <path d="M1017.0,358.3 a6,6 0 0 1 12,0 Z" fill="#4B1F3F"/>
        <line x1="1023.0" y1="352.3" x2="1023.0" y2="348.3"/>
      </g>
      <circle cx="1023.0" cy="347.3" r="1.6" fill="#C9A227" stroke="#2B2118" stroke-width=".7"/>
      <text x="1040.0" y="355.8" text-anchor="start" font-weight="600">Constantinople</text>
    </g>
    <g id="city-edirne" class="city">
      <circle cx="926.1" cy="352.0" r="4.6" fill="none" stroke="#2B2118" stroke-width="1.4"/>
      <circle cx="926.1" cy="352.0" r="2.4" fill="#C9A227" stroke="#2B2118" stroke-width=".8"/>
      <text x="918.1" y="346.0" text-anchor="end">Edirne</text>
    </g>
    <g id="city-pera" class="city">
      <circle cx="1028.2" cy="347.1" r="2.0" fill="#C9A227" stroke="#2B2118" stroke-width=".8"/>
      <line x1="1031.2" y1="344.6" x2="1044.2" y2="336.1" stroke="#2B2118" stroke-width=".6" stroke-opacity=".7"/>
      <text x="1046.2" y="335.1" text-anchor="start" font-size="11">Pera</text>
    </g>
    <g id="city-thessalonica" class="city">
      <circle cx="853.5" cy="442.0" r="4.6" fill="none" stroke="#2B2118" stroke-width="1.4"/>
      <circle cx="853.5" cy="442.0" r="2.4" fill="#C9A227" stroke="#2B2118" stroke-width=".8"/>
      <text x="844.5" y="438.0" text-anchor="end">Thessalonica</text>
    </g>
    <g id="city-athens" class="city">
      <circle cx="858.8" cy="553.7" r="4.6" fill="none" stroke="#2B2118" stroke-width="1.4"/>
      <circle cx="858.8" cy="553.7" r="2.4" fill="#C9A227" stroke="#2B2118" stroke-width=".8"/>
      <text x="849.8" y="548.7" text-anchor="end">Athens</text>
    </g>
    <g id="city-nicaea" class="city">
      <circle cx="1099.1" cy="431.5" r="4.6" fill="none" stroke="#2B2118" stroke-width="1.4"/>
      <circle cx="1099.1" cy="431.5" r="2.4" fill="#C9A227" stroke="#2B2118" stroke-width=".8"/>
      <text x="1108.1" y="444.5" text-anchor="start">Nicaea</text>
    </g>
    <g id="city-trebizond" class="city">
      <circle cx="1453.6" cy="297.6" r="4.6" fill="none" stroke="#2B2118" stroke-width="1.4"/>
      <circle cx="1453.6" cy="297.6" r="2.4" fill="#C9A227" stroke="#2B2118" stroke-width=".8"/>
      <text x="1447.6" y="287.6" text-anchor="end">Trebizond</text>
    </g>
    <g id="city-kaffa" class="city">
      <circle cx="1259.6" cy="179.5" r="4.6" fill="none" stroke="#2B2118" stroke-width="1.4"/>
      <circle cx="1259.6" cy="179.5" r="2.4" fill="#C9A227" stroke="#2B2118" stroke-width=".8"/>
      <text x="1267.6" y="191.5" text-anchor="start">Kaffa</text>
    </g>
    <g id="city-alexandria" class="city">
      <circle cx="1323.6" cy="857.2" r="4.6" fill="none" stroke="#2B2118" stroke-width="1.4"/>
      <circle cx="1323.6" cy="857.2" r="2.4" fill="#C9A227" stroke="#2B2118" stroke-width=".8"/>
      <text x="1313.6" y="850.2" text-anchor="end">Alexandria</text>
    </g>
    <g id="city-cairo" class="city">
      <circle cx="1413.8" cy="895.4" r="4.6" fill="none" stroke="#2B2118" stroke-width="1.4"/>
      <circle cx="1413.8" cy="895.4" r="2.4" fill="#C9A227" stroke="#2B2118" stroke-width=".8"/>
      <text x="1422.8" y="889.4" text-anchor="start">Cairo</text>
    </g>
  </g>

  <!-- ====== COMPASS ROSE (rhumb hub) ====== -->
  <g id="board-compass">
    <circle cx="690" cy="770" r="54" fill="#F0E6D2" fill-opacity=".55" stroke="#2B2118" stroke-width="1"/>
    <circle cx="690" cy="770" r="32.76" fill="none" stroke="#2B2118" stroke-width=".7" stroke-opacity=".7"/>
    <path d="M690,770 L685.6,759.4 L690.0,722.0 L694.4,759.4 Z" fill="#C9A227" fill-opacity=".95" stroke="#2B2118" stroke-width=".8"/>
    <path d="M690,770 L685.6,759.4 L690.0,722.0 Z" fill="#2B2118" fill-opacity=".55"/>
    <path d="M690,770 L692.7,763.4 L711.0,749.0 L696.6,767.3 Z" fill="#2B2118" fill-opacity=".8" stroke="#2B2118" stroke-width=".8"/>
    <path d="M690,770 L700.6,765.6 L738.0,770.0 L700.6,774.4 Z" fill="#C9A227" fill-opacity=".95" stroke="#2B2118" stroke-width=".8"/>
    <path d="M690,770 L700.6,765.6 L738.0,770.0 Z" fill="#2B2118" fill-opacity=".55"/>
    <path d="M690,770 L696.6,772.7 L711.0,791.0 L692.7,776.6 Z" fill="#2B2118" fill-opacity=".8" stroke="#2B2118" stroke-width=".8"/>
    <path d="M690,770 L694.4,780.6 L690.0,818.0 L685.6,780.6 Z" fill="#C9A227" fill-opacity=".95" stroke="#2B2118" stroke-width=".8"/>
    <path d="M690,770 L694.4,780.6 L690.0,818.0 Z" fill="#2B2118" fill-opacity=".55"/>
    <path d="M690,770 L687.3,776.6 L669.0,791.0 L683.4,772.7 Z" fill="#2B2118" fill-opacity=".8" stroke="#2B2118" stroke-width=".8"/>
    <path d="M690,770 L679.4,774.4 L642.0,770.0 L679.4,765.6 Z" fill="#C9A227" fill-opacity=".95" stroke="#2B2118" stroke-width=".8"/>
    <path d="M690,770 L679.4,774.4 L642.0,770.0 Z" fill="#2B2118" fill-opacity=".55"/>
    <path d="M690,770 L683.4,767.3 L669.0,749.0 L687.3,763.4 Z" fill="#2B2118" fill-opacity=".8" stroke="#2B2118" stroke-width=".8"/>
    <circle cx="690" cy="770" r="4.5" fill="#C9A227" stroke="#2B2118" stroke-width="1"/>
    <text x="690.0" y="708.0" text-anchor="middle" font-family="Cinzel, serif"
          font-size="15" fill="#2B2118">N</text>
  </g>

  <!-- ====== TITLE CARTOUCHE ====== -->
  <g id="board-cartouche">
    <rect x="65.0" y="488.0" width="196" height="144" rx="8"
          fill="#F0E6D2" stroke="#2B2118" stroke-width="2.2"/>
    <rect x="75.0" y="498.0" width="176" height="124" rx="4"
          fill="none" stroke="#C9A227" stroke-width="1.4"/>
    <rect x="79.0" y="502.0" width="168" height="116"
          fill="none" stroke="#2B2118" stroke-width=".8" stroke-opacity=".6"/>
    <!-- laurel sprigs -->
    <g stroke="#4A5D3A" stroke-width="1.4" fill="#4A5D3A" fill-opacity=".85">
      <path d="M105,594 q22,12 58,12 q36,0 58,-12" fill="none"/>
      <ellipse cx="149" cy="602.0" rx="6" ry="2.3" transform="rotate(18 149 602.0)" stroke="none"/>
      <ellipse cx="177" cy="602.0" rx="6" ry="2.3" transform="rotate(-18 177 602.0)" stroke="none"/>
      <ellipse cx="138" cy="599.8" rx="6" ry="2.3" transform="rotate(30 138 599.8)" stroke="none"/>
      <ellipse cx="188" cy="599.8" rx="6" ry="2.3" transform="rotate(-30 188 599.8)" stroke="none"/>
      <ellipse cx="127" cy="597.6" rx="6" ry="2.3" transform="rotate(42 127 597.6)" stroke="none"/>
      <ellipse cx="199" cy="597.6" rx="6" ry="2.3" transform="rotate(-42 199 597.6)" stroke="none"/>
      <ellipse cx="116" cy="595.4" rx="6" ry="2.3" transform="rotate(54 116 595.4)" stroke="none"/>
      <ellipse cx="210" cy="595.4" rx="6" ry="2.3" transform="rotate(-54 210 595.4)" stroke="none"/>
      <ellipse cx="105" cy="593.2" rx="6" ry="2.3" transform="rotate(66 105 593.2)" stroke="none"/>
      <ellipse cx="221" cy="593.2" rx="6" ry="2.3" transform="rotate(-66 221 593.2)" stroke="none"/>
    </g>
    <text x="163" y="546" text-anchor="middle" font-family="Cinzel, serif"
          font-size="27" font-weight="700" fill="#4B1F3F"
          letter-spacing=".07em">IMPERIUM</text>
    <text x="163" y="570" text-anchor="middle"
          font-family="'EB Garamond', serif" font-style="italic"
          font-size="13.5" fill="#2B2118">Twilight of Empires</text>
    <text x="163" y="588" text-anchor="middle"
          font-family="'EB Garamond', serif" font-size="12" fill="#7A1F2B"
          letter-spacing=".3em">&#183; MCDLIII &#183;</text>
  </g>

  <!-- ====== GREEK-KEY FRAME ====== -->
  <g id="board-frame">
    <path d="M0,0 H1600 V1000 H0 Z M60,60 V940 H1540 V60 Z" fill="#E2D3B3" fill-rule="evenodd" fill-opacity=".55"/>
    <rect x="34" y="34" width="1532" height="22" fill="url(#board-key-h)"/>
    <rect x="34" y="944" width="1532" height="22" fill="url(#board-key-h)"/>
    <rect x="34" y="34" width="22" height="932" fill="url(#board-key-v)"/>
    <rect x="1544" y="34" width="22" height="932" fill="url(#board-key-v)"/>
    <rect x="31" y="31" width="1538" height="938" fill="none" stroke="#2B2118" stroke-width="2.5"/>
    <rect x="34" y="34" width="1532" height="932" fill="none" stroke="#2B2118" stroke-width="1"/>
    <rect x="56" y="56" width="1488" height="888" fill="none" stroke="#2B2118" stroke-width="1.2"/>
    <rect x="60" y="60" width="1480" height="880" fill="none" stroke="#C9A227" stroke-width="1.5" stroke-opacity=".8"/>
  </g>

  <!-- ====== AGE / FOXING OVERLAY ====== -->
  <g id="board-age" pointer-events="none">
    <ellipse cx="330" cy="180" rx="150" ry="90" fill="#E2D3B3" fill-opacity=".22"/>
    <ellipse cx="1290" cy="560" rx="190" ry="120" fill="#E2D3B3" fill-opacity=".22"/>
    <ellipse cx="760" cy="840" rx="220" ry="90" fill="#E2D3B3" fill-opacity=".2"/>
    <ellipse cx="1240" cy="470" rx="150" ry="95" fill="#E2D3B3" fill-opacity=".18"/>
    <ellipse cx="120" cy="760" rx="90" ry="110" fill="#E2D3B3" fill-opacity=".26"/>
    <ellipse cx="900" cy="90" rx="130" ry="45" fill="#E2D3B3" fill-opacity=".2"/>
  </g>
</svg>
